G04 ---------------------------- Layer name :TOP LAYER*
G04 EasyEDA v5.6.15, Fri, 03 Aug 2018 07:00:42 GMT*
G04 fad3a197975a46e394a3725a2b087312*
G04 Gerber Generator version 0.2*
G04 Scale: 100 percent, Rotated: No, Reflected: No *
G04 Dimensions in millimeters *
G04 leading zeros omitted , absolute positions ,3 integer and 3 decimal *
%FSLAX33Y33*%
%MOMM*%
G90*
G71D02*

%ADD11C,0.202997*%
%ADD12C,0.302006*%
%ADD13C,0.610006*%
%ADD14C,1.524000*%
%ADD15C,1.199896*%
%ADD16R,1.211580X1.211580*%
%ADD17R,1.651000X1.651000*%
%ADD18C,1.651000*%
%ADD19R,1.397000X1.397000*%
%ADD20C,1.397000*%
%ADD21C,3.810000*%
%ADD22C,1.778000*%
%ADD23R,1.699997X1.699997*%
%ADD24C,1.699997*%

%LPD*%
G54D11*
G01X41917Y29265D02*
G01X39659Y29265D01*
G01X35539Y25146D01*
G01X34256Y25146D01*
G01X33647Y24536D01*
G01X33647Y23147D01*
G01X55887Y12771D02*
G01X33091Y12771D01*
G01X24130Y3810D01*
G01X39370Y3810D02*
G01X38237Y3810D01*
G01X38237Y3810D02*
G01X38237Y4091D01*
G01X36154Y6177D01*
G01X33672Y6177D01*
G01X62237Y31805D02*
G01X60967Y30535D01*
G01X34762Y30535D01*
G01X31013Y26786D01*
G01X31013Y25821D01*
G01X32258Y24577D01*
G01X32258Y23876D01*
G01X62237Y29265D02*
G01X60967Y27995D01*
G01X39852Y27995D01*
G01X38244Y26388D01*
G01X20320Y53340D02*
G01X21300Y53340D01*
G01X41917Y47045D02*
G01X27594Y47045D01*
G01X21300Y53340D01*
G01X39370Y1270D02*
G01X54747Y1270D01*
G01X55880Y2402D01*
G01X53086Y3556D02*
G01X55234Y3556D01*
G01X55880Y4201D01*
G54D12*
G01X11176Y8890D02*
G01X11176Y7932D01*
G01X12700Y2540D02*
G01X15240Y2540D01*
G01X16510Y1270D01*
G01X11430Y1270D02*
G01X12700Y2540D01*
G01X11176Y7932D02*
G01X12700Y6408D01*
G01X12700Y2540D01*
G01X10160Y53340D02*
G01X11231Y54411D01*
G01X14168Y54411D01*
G01X15240Y53340D01*
G01X20320Y33020D02*
G01X12700Y33020D01*
G01X41917Y41965D02*
G01X32971Y33020D01*
G01X20320Y33020D01*
G01X15240Y20320D02*
G01X19212Y16347D01*
G01X24284Y16347D01*
G01X10160Y20320D02*
G01X11336Y19143D01*
G01X14063Y19143D01*
G01X15240Y20320D01*
G01X36830Y1270D02*
G01X38168Y2608D01*
G01X41021Y2608D01*
G01X41968Y3556D01*
G01X42926Y3556D02*
G01X41968Y3556D01*
G01X31750Y1270D02*
G01X33020Y2540D01*
G01X35560Y2540D01*
G01X36830Y1270D01*
G01X26670Y1270D02*
G01X27940Y2540D01*
G01X30480Y2540D01*
G01X31750Y1270D01*
G01X21590Y1270D02*
G01X22860Y2540D01*
G01X25400Y2540D01*
G01X26670Y1270D01*
G01X16510Y1270D02*
G01X17780Y2540D01*
G01X20320Y2540D01*
G01X21590Y1270D01*
G01X6350Y1270D02*
G01X7620Y2540D01*
G01X10160Y2540D01*
G01X11430Y1270D01*
G54D11*
G01X62237Y16565D02*
G01X60967Y17835D01*
G01X20264Y17835D01*
G01X17780Y20320D01*
G01X15240Y45720D02*
G01X12700Y48260D01*
G01X12700Y53340D01*
G01X20320Y30480D02*
G01X22405Y32565D01*
G01X37607Y32565D01*
G01X39385Y34345D01*
G01X41917Y34345D01*
G01X62237Y26725D02*
G01X60967Y25455D01*
G01X36680Y25455D01*
G01X41917Y31805D02*
G01X41673Y31562D01*
G01X29784Y31562D01*
G01X19778Y21556D01*
G01X4899Y21556D01*
G01X4081Y20741D01*
G01X4081Y13698D01*
G01X5080Y12700D01*
G01X7620Y12700D02*
G01X5080Y12700D01*
G01X38244Y32374D02*
G01X38945Y33075D01*
G01X55887Y33075D01*
G01X62237Y39425D01*
G01X20320Y25400D02*
G01X13985Y31734D01*
G01X8905Y31734D01*
G01X5080Y35560D01*
G01X12700Y25400D02*
G01X5080Y33020D01*
G01X2540Y33020D01*
G01X62237Y19105D02*
G01X60967Y20375D01*
G01X33218Y20375D01*
G01X29718Y23876D01*
G01X62237Y24185D02*
G01X60868Y22816D01*
G01X35306Y22816D01*
G01X35049Y22560D01*
G01X31846Y22560D01*
G01X30988Y23418D01*
G01X30988Y25146D01*
G01X29718Y26416D01*
G01X7620Y45720D02*
G01X5080Y45720D01*
G01X41917Y36885D02*
G01X43131Y38100D01*
G01X43131Y42537D01*
G01X42511Y43157D01*
G01X31813Y43157D01*
G01X30657Y44312D01*
G01X9027Y44312D01*
G01X7620Y45720D01*
G01X20320Y38100D02*
G01X17780Y35560D01*
G01X12700Y35560D01*
G01X19050Y3810D02*
G01X19050Y6217D01*
G01X13970Y11297D01*
G01X13970Y13970D01*
G01X7620Y20320D01*
G01X16510Y3810D02*
G01X16510Y7312D01*
G01X11445Y12377D01*
G01X11445Y13954D01*
G01X5080Y20320D01*
G01X62237Y14025D02*
G01X56809Y8597D01*
G01X31457Y8597D01*
G01X26670Y3810D01*
G01X29210Y3810D02*
G01X32164Y6764D01*
G01X57515Y6764D01*
G01X62237Y11485D01*

%LPD*%
G36*
G01X5885Y34898D02*
G01X5840Y35607D01*
G01X5032Y34799D01*
G01X5741Y34754D01*
G01X5885Y34898D01*
G37*

%LPD*%
G36*
G01X3577Y32918D02*
G01X3044Y32448D01*
G01X3044Y33591D01*
G01X3577Y33121D01*
G01X3577Y32918D01*
G37*

%LPD*%
G36*
G01X55374Y1753D02*
G01X55917Y1804D01*
G01X55281Y2440D01*
G01X55230Y1897D01*
G01X55374Y1753D01*
G37*

%LPD*%
G36*
G01X55374Y3551D02*
G01X55917Y3602D01*
G01X55281Y4238D01*
G01X55230Y3695D01*
G01X55374Y3551D01*
G37*

%LPD*%
G36*
G01X30584Y23153D02*
G01X30541Y23927D01*
G01X29666Y23052D01*
G01X30440Y23009D01*
G01X30584Y23153D01*
G37*

%LPD*%
G36*
G01X32002Y24976D02*
G01X32667Y24592D01*
G01X31495Y24192D01*
G01X31788Y24903D01*
G01X32002Y24976D01*
G37*

%LPD*%
G36*
G01X30584Y25693D02*
G01X30541Y26467D01*
G01X29666Y25592D01*
G01X30440Y25549D01*
G01X30584Y25693D01*
G37*

%LPD*%
G36*
G01X14674Y54119D02*
G01X15283Y54037D01*
G01X14542Y53296D01*
G01X14460Y53905D01*
G01X14674Y54119D01*
G37*

%LPD*%
G36*
G01X12801Y52389D02*
G01X13223Y52877D01*
G01X12176Y52877D01*
G01X12598Y52389D01*
G01X12801Y52389D01*
G37*

%LPD*%
G36*
G01X10939Y53905D02*
G01X10857Y53296D01*
G01X10116Y54037D01*
G01X10725Y54119D01*
G01X10939Y53905D01*
G37*

%LPD*%
G36*
G01X6030Y45618D02*
G01X5542Y45196D01*
G01X5542Y46243D01*
G01X6030Y45821D01*
G01X6030Y45618D01*
G37*

%LPD*%
G36*
G01X6669Y45618D02*
G01X7157Y45196D01*
G01X7157Y46243D01*
G01X6669Y45821D01*
G01X6669Y45618D01*
G37*

%LPD*%
G36*
G01X8364Y45119D02*
G01X8317Y45763D01*
G01X7576Y45022D01*
G01X8220Y44975D01*
G01X8364Y45119D01*
G37*

%LPD*%
G36*
G01X14639Y46464D02*
G01X15283Y46417D01*
G01X14542Y45676D01*
G01X14495Y46320D01*
G01X14639Y46464D01*
G37*

%LPD*%
G36*
G01X13650Y35458D02*
G01X13162Y35036D01*
G01X13162Y36083D01*
G01X13650Y35661D01*
G01X13650Y35458D01*
G37*

%LPD*%
G36*
G01X13650Y32868D02*
G01X13162Y32496D01*
G01X13162Y33543D01*
G01X13650Y33171D01*
G01X13650Y32868D01*
G37*

%LPD*%
G36*
G01X12099Y26144D02*
G01X12743Y26097D01*
G01X12002Y25356D01*
G01X11955Y26000D01*
G01X12099Y26144D01*
G37*

%LPD*%
G36*
G01X19719Y26144D02*
G01X20363Y26097D01*
G01X19622Y25356D01*
G01X19575Y26000D01*
G01X19719Y26144D01*
G37*

%LPD*%
G36*
G01X21064Y31080D02*
G01X21017Y30436D01*
G01X20276Y31177D01*
G01X20920Y31224D01*
G01X21064Y31080D01*
G37*

%LPD*%
G36*
G01X19369Y32868D02*
G01X19857Y32496D01*
G01X19857Y33543D01*
G01X19369Y33171D01*
G01X19369Y32868D01*
G37*

%LPD*%
G36*
G01X21270Y32868D02*
G01X20782Y32496D01*
G01X20782Y33543D01*
G01X21270Y33171D01*
G01X21270Y32868D01*
G37*

%LPD*%
G36*
G01X19719Y37355D02*
G01X20363Y37402D01*
G01X19622Y38143D01*
G01X19575Y37499D01*
G01X19719Y37355D01*
G37*

%LPD*%
G36*
G01X18524Y19719D02*
G01X18477Y20363D01*
G01X17736Y19622D01*
G01X18380Y19575D01*
G01X18524Y19719D01*
G37*

%LPD*%
G36*
G01X16019Y19754D02*
G01X15937Y20363D01*
G01X15196Y19622D01*
G01X15805Y19540D01*
G01X16019Y19754D01*
G37*

%LPD*%
G36*
G01X14674Y19540D02*
G01X15283Y19622D01*
G01X14542Y20363D01*
G01X14460Y19754D01*
G01X14674Y19540D01*
G37*

%LPD*%
G36*
G01X10939Y19754D02*
G01X10857Y20363D01*
G01X10116Y19622D01*
G01X10725Y19540D01*
G01X10939Y19754D01*
G37*

%LPD*%
G36*
G01X8364Y19719D02*
G01X8317Y20363D01*
G01X7576Y19622D01*
G01X8220Y19575D01*
G01X8364Y19719D01*
G37*

%LPD*%
G36*
G01X5824Y19719D02*
G01X5777Y20363D01*
G01X5036Y19622D01*
G01X5680Y19575D01*
G01X5824Y19719D01*
G37*

%LPD*%
G36*
G01X4479Y13444D02*
G01X5123Y13397D01*
G01X4382Y12656D01*
G01X4335Y13300D01*
G01X4479Y13444D01*
G37*

%LPD*%
G36*
G01X6030Y12598D02*
G01X5542Y12176D01*
G01X5542Y13223D01*
G01X6030Y12801D01*
G01X6030Y12598D01*
G37*

%LPD*%
G36*
G01X6669Y12598D02*
G01X7157Y12176D01*
G01X7157Y13223D01*
G01X6669Y12801D01*
G01X6669Y12598D01*
G37*

%LPD*%
G36*
G01X61453Y38498D02*
G01X62293Y38538D01*
G01X61350Y39481D01*
G01X61309Y38641D01*
G01X61453Y38498D01*
G37*

%LPD*%
G36*
G01X61453Y30878D02*
G01X62293Y30918D01*
G01X61350Y31861D01*
G01X61309Y31021D01*
G01X61453Y30878D01*
G37*

%LPD*%
G36*
G01X61453Y28338D02*
G01X62293Y28378D01*
G01X61350Y29321D01*
G01X61309Y28481D01*
G01X61453Y28338D01*
G37*

%LPD*%
G36*
G01X61453Y25798D02*
G01X62293Y25838D01*
G01X61350Y26781D01*
G01X61309Y25941D01*
G01X61453Y25798D01*
G37*

%LPD*%
G36*
G01X61453Y23258D02*
G01X62293Y23298D01*
G01X61350Y24241D01*
G01X61309Y23401D01*
G01X61453Y23258D01*
G37*

%LPD*%
G36*
G01X61453Y20033D02*
G01X62293Y19993D01*
G01X61350Y19050D01*
G01X61309Y19889D01*
G01X61453Y20033D01*
G37*

%LPD*%
G36*
G01X61453Y17493D02*
G01X62293Y17453D01*
G01X61350Y16510D01*
G01X61309Y17349D01*
G01X61453Y17493D01*
G37*

%LPD*%
G36*
G01X61453Y13098D02*
G01X62293Y13138D01*
G01X61350Y14081D01*
G01X61309Y13241D01*
G01X61453Y13098D01*
G37*

%LPD*%
G36*
G01X61453Y10558D02*
G01X62293Y10598D01*
G01X61350Y11541D01*
G01X61309Y10701D01*
G01X61453Y10558D01*
G37*

%LPD*%
G36*
G01X42845Y37669D02*
G01X42804Y36830D01*
G01X41861Y37773D01*
G01X42701Y37813D01*
G01X42845Y37669D01*
G37*

%LPD*%
G36*
G01X40707Y34244D02*
G01X41329Y33679D01*
G01X41329Y35012D01*
G01X40707Y34447D01*
G01X40707Y34244D01*
G37*

%LPD*%
G36*
G01X40752Y31460D02*
G01X41475Y31034D01*
G01X41207Y32340D01*
G01X40711Y31663D01*
G01X40752Y31460D01*
G37*

%LPD*%
G36*
G01X40707Y29164D02*
G01X41329Y28599D01*
G01X41329Y29932D01*
G01X40707Y29367D01*
G01X40707Y29164D01*
G37*

%LPD*%
G36*
G01X41168Y41003D02*
G01X41973Y41078D01*
G01X41030Y42021D01*
G01X40954Y41216D01*
G01X41168Y41003D01*
G37*

%LPD*%
G36*
G01X40707Y46944D02*
G01X41329Y46379D01*
G01X41329Y47712D01*
G01X40707Y47147D01*
G01X40707Y46944D01*
G37*

%LPD*%
G36*
G01X23247Y16196D02*
G01X23780Y15775D01*
G01X23780Y16918D01*
G01X23247Y16498D01*
G01X23247Y16196D01*
G37*

%LPD*%
G36*
G01X40527Y1168D02*
G01X39932Y632D01*
G01X39932Y1907D01*
G01X40527Y1371D01*
G01X40527Y1168D01*
G37*

%LPD*%
G36*
G01X37755Y1981D02*
G01X37678Y1216D01*
G01X36776Y2118D01*
G01X37541Y2195D01*
G01X37755Y1981D01*
G37*

%LPD*%
G36*
G01X36118Y2195D02*
G01X36883Y2118D01*
G01X35981Y1216D01*
G01X35904Y1981D01*
G01X36118Y2195D01*
G37*

%LPD*%
G36*
G01X32675Y1981D02*
G01X32598Y1216D01*
G01X31696Y2118D01*
G01X32461Y2195D01*
G01X32675Y1981D01*
G37*

%LPD*%
G36*
G01X31038Y2195D02*
G01X31803Y2118D01*
G01X30901Y1216D01*
G01X30824Y1981D01*
G01X31038Y2195D01*
G37*

%LPD*%
G36*
G01X30100Y4556D02*
G01X30058Y3756D01*
G01X29156Y4658D01*
G01X29956Y4700D01*
G01X30100Y4556D01*
G37*

%LPD*%
G36*
G01X27560Y4556D02*
G01X27518Y3756D01*
G01X26616Y4658D01*
G01X27416Y4700D01*
G01X27560Y4556D01*
G37*

%LPD*%
G36*
G01X27595Y1981D02*
G01X27518Y1216D01*
G01X26616Y2118D01*
G01X27381Y2195D01*
G01X27595Y1981D01*
G37*

%LPD*%
G36*
G01X25958Y2195D02*
G01X26723Y2118D01*
G01X25821Y1216D01*
G01X25744Y1981D01*
G01X25958Y2195D01*
G37*

%LPD*%
G36*
G01X25020Y4556D02*
G01X24978Y3756D01*
G01X24076Y4658D01*
G01X24876Y4700D01*
G01X25020Y4556D01*
G37*

%LPD*%
G36*
G01X22515Y1981D02*
G01X22438Y1216D01*
G01X21536Y2118D01*
G01X22301Y2195D01*
G01X22515Y1981D01*
G37*

%LPD*%
G36*
G01X20878Y2195D02*
G01X21643Y2118D01*
G01X20741Y1216D01*
G01X20664Y1981D01*
G01X20878Y2195D01*
G37*

%LPD*%
G36*
G01X19151Y4967D02*
G01X19687Y4372D01*
G01X18412Y4372D01*
G01X18948Y4967D01*
G01X19151Y4967D01*
G37*

%LPD*%
G36*
G01X16611Y4967D02*
G01X17147Y4372D01*
G01X15872Y4372D01*
G01X16408Y4967D01*
G01X16611Y4967D01*
G37*

%LPD*%
G36*
G01X15798Y2195D02*
G01X16563Y2118D01*
G01X15661Y1216D01*
G01X15584Y1981D01*
G01X15798Y2195D01*
G37*

%LPD*%
G36*
G01X17435Y1981D02*
G01X17358Y1216D01*
G01X16456Y2118D01*
G01X17221Y2195D01*
G01X17435Y1981D01*
G37*

%LPD*%
G36*
G01X12355Y1981D02*
G01X12278Y1216D01*
G01X11376Y2118D01*
G01X12141Y2195D01*
G01X12355Y1981D01*
G37*

%LPD*%
G36*
G01X10718Y2195D02*
G01X11483Y2118D01*
G01X10581Y1216D01*
G01X10504Y1981D01*
G01X10718Y2195D01*
G37*

%LPD*%
G36*
G01X7275Y1981D02*
G01X7198Y1216D01*
G01X6296Y2118D01*
G01X7061Y2195D01*
G01X7275Y1981D01*
G37*

%LPD*%
G36*
G01X33748Y23562D02*
G01X33876Y23348D01*
G01X33418Y23348D01*
G01X33545Y23562D01*
G01X33748Y23562D01*
G37*

%LPD*%
G36*
G01X55472Y12669D02*
G01X55685Y12542D01*
G01X55685Y12999D01*
G01X55472Y12872D01*
G01X55472Y12669D01*
G37*

%LPD*%
G36*
G01X34087Y6075D02*
G01X33874Y5948D01*
G01X33874Y6406D01*
G01X34087Y6278D01*
G01X34087Y6075D01*
G37*

%LPD*%
G36*
G01X38610Y26609D02*
G01X38549Y26368D01*
G01X38225Y26692D01*
G01X38466Y26753D01*
G01X38610Y26609D01*
G37*

%LPD*%
G36*
G01X37095Y25354D02*
G01X36881Y25227D01*
G01X36881Y25684D01*
G01X37095Y25557D01*
G01X37095Y25354D01*
G37*

%LPD*%
G36*
G01X38610Y32596D02*
G01X38549Y32355D01*
G01X38225Y32679D01*
G01X38466Y32740D01*
G01X38610Y32596D01*
G37*

%LPD*%
G36*
G01X53996Y3657D02*
G01X53691Y3809D01*
G01X53691Y3302D01*
G01X53996Y3454D01*
G01X53996Y3657D01*
G37*

%LPD*%
G36*
G01X41968Y3404D02*
G01X42320Y3178D01*
G01X42320Y3933D01*
G01X41968Y3707D01*
G01X41968Y3404D01*
G37*

%LPD*%
G36*
G01X21300Y53441D02*
G01X21018Y53593D01*
G01X21018Y53086D01*
G01X21300Y53238D01*
G01X21300Y53441D01*
G37*

%LPD*%
G36*
G01X11327Y7932D02*
G01X11553Y8284D01*
G01X10798Y8284D01*
G01X11024Y7932D01*
G01X11327Y7932D01*
G37*

%LPD*%
G36*
G01X38237Y3708D02*
G01X38519Y3556D01*
G01X38519Y4063D01*
G01X38237Y3911D01*
G01X38237Y3708D01*
G37*
G54D14*
G01X5080Y43180D03*
G01X2540Y40640D03*
G01X5080Y38100D03*
G01X5080Y35560D03*
G01X2540Y33020D03*
G01X5080Y30480D03*
G01X5080Y27940D03*
G01X2540Y25400D03*
G01X5080Y22860D03*
G54D15*
G01X55880Y2402D03*
G01X55880Y4201D03*
G54D16*
G01X53086Y3556D03*
G01X42926Y3556D03*
G54D17*
G01X27178Y23876D03*
G54D18*
G01X29718Y23876D03*
G01X32258Y23876D03*
G01X34798Y23876D03*
G01X34798Y26416D03*
G01X32258Y26416D03*
G01X29718Y26416D03*
G01X27178Y26416D03*
G54D19*
G01X20320Y53340D03*
G54D20*
G01X17780Y53340D03*
G01X15240Y53340D03*
G01X12700Y53340D03*
G01X10160Y53340D03*
G01X7620Y53340D03*
G01X5080Y53340D03*
G01X2540Y53340D03*
G01X2540Y45720D03*
G01X5080Y45720D03*
G01X7620Y45720D03*
G01X10160Y45720D03*
G01X12700Y45720D03*
G01X15240Y45720D03*
G01X17780Y45720D03*
G01X20320Y45720D03*
G54D19*
G01X12700Y43180D03*
G54D20*
G01X12700Y40640D03*
G01X12700Y38100D03*
G01X12700Y35560D03*
G01X12700Y33020D03*
G01X12700Y30480D03*
G01X12700Y27940D03*
G01X12700Y25400D03*
G01X20320Y25400D03*
G01X20320Y27940D03*
G01X20320Y30480D03*
G01X20320Y33020D03*
G01X20320Y35560D03*
G01X20320Y38100D03*
G01X20320Y40640D03*
G01X20320Y43180D03*
G54D19*
G01X20320Y20320D03*
G54D20*
G01X17780Y20320D03*
G01X15240Y20320D03*
G01X12700Y20320D03*
G01X10160Y20320D03*
G01X7620Y20320D03*
G01X5080Y20320D03*
G01X2540Y20320D03*
G01X2540Y12700D03*
G01X5080Y12700D03*
G01X7620Y12700D03*
G01X10160Y12700D03*
G01X12700Y12700D03*
G01X15240Y12700D03*
G01X17780Y12700D03*
G01X20320Y12700D03*
G54D16*
G01X21336Y8890D03*
G01X11176Y8890D03*
G54D21*
G01X60967Y53395D03*
G01X43187Y53395D03*
G54D22*
G01X62237Y39425D03*
G01X62237Y36885D03*
G01X62237Y34345D03*
G01X62237Y31805D03*
G01X62237Y29265D03*
G01X62237Y26725D03*
G01X62237Y24185D03*
G01X62237Y21645D03*
G01X62237Y19105D03*
G01X62237Y16565D03*
G01X62237Y14025D03*
G01X62237Y11485D03*
G01X41917Y39425D03*
G01X41917Y36885D03*
G01X41917Y34345D03*
G01X41917Y31805D03*
G01X41917Y29265D03*
G01X41917Y26725D03*
G01X41917Y24185D03*
G01X41917Y21645D03*
G01X41917Y19105D03*
G01X41917Y16565D03*
G01X41917Y14025D03*
G01X41917Y11485D03*
G01X41917Y41965D03*
G01X41917Y44505D03*
G01X41917Y47045D03*
G01X41917Y49585D03*
G54D14*
G01X24284Y18887D03*
G01X24284Y16347D03*
G01X24284Y13807D03*
G01X24284Y11267D03*
G54D23*
G01X39369Y3810D03*
G54D24*
G01X39370Y1270D03*
G01X36830Y3810D03*
G01X36830Y1270D03*
G01X34290Y3810D03*
G01X34290Y1270D03*
G01X31750Y3810D03*
G01X31750Y1270D03*
G01X29210Y3810D03*
G01X29210Y1270D03*
G01X26670Y3810D03*
G01X26670Y1270D03*
G01X24130Y3810D03*
G01X24130Y1270D03*
G01X21590Y3810D03*
G01X21590Y1270D03*
G01X19050Y3810D03*
G01X19050Y1270D03*
G01X16510Y3810D03*
G01X16510Y1270D03*
G01X13970Y3810D03*
G01X13970Y1270D03*
G01X11430Y3810D03*
G01X11430Y1270D03*
G01X8890Y3810D03*
G01X8890Y1270D03*
G01X6350Y3810D03*
G01X6350Y1270D03*
G54D13*
G01X33647Y23147D03*
G01X55887Y12771D03*
G01X33672Y6177D03*
G01X38244Y26388D03*
G01X36680Y25455D03*
G01X38244Y32374D03*
M00*
M02*
