;PTH Drill file created by EasyEDA 
M48
METRIC,LZ,000.000
;Holesize 1 = 0.306 METRIC
T01C0.306
;Holesize 2 = 0.600 METRIC
T02C0.600
;Holesize 3 = 0.712 METRIC
T03C0.712
;Holesize 4 = 0.762 METRIC
T04C0.762
;Holesize 5 = 0.813 METRIC
T05C0.813
;Holesize 6 = 0.889 METRIC
T06C0.889
;Holesize 7 = 0.915 METRIC
T07C0.915
;Holesize 8 = 1.001 METRIC
T08C1.001
;Holesize 9 = 1.101 METRIC
T09C1.101
;Holesize 10 = 2.500 METRIC
T10C2.500
%
G05
G90
T01
X033647Y023147
X055887Y012771
X033672Y006177
X038244Y026388
X036680Y025455
X038244Y032374
T02
X055880Y002402
X055880Y004201
T03
X020320Y053340
X017780Y053340
X015240Y053340
X012700Y053340
X010160Y053340
X007620Y053340
X005080Y053340
X002540Y053340
X002540Y045720
X005080Y045720
X007620Y045720
X010160Y045720
X012700Y045720
X015240Y045720
X017780Y045720
X020320Y045720
X012700Y043180
X012700Y040640
X012700Y038100
X012700Y035560
X012700Y033020
X012700Y030480
X012700Y027940
X012700Y025400
X020320Y025400
X020320Y027940
X020320Y030480
X020320Y033020
X020320Y035560
X020320Y038100
X020320Y040640
X020320Y043180
X020320Y020320
X017780Y020320
X015240Y020320
X012700Y020320
X010160Y020320
X007620Y020320
X005080Y020320
X002540Y020320
X002540Y012700
X005080Y012700
X007620Y012700
X010160Y012700
X012700Y012700
X015240Y012700
X017780Y012700
X020320Y012700
T04
X005080Y043180
X002540Y040640
X005080Y038100
X005080Y035560
X002540Y033020
X005080Y030480
X005080Y027940
X002540Y025400
X005080Y022860
T05
X053086Y003556
X042926Y003556
X021336Y008890
X011176Y008890
T06
X027178Y023876
X029718Y023876
X032258Y023876
X034798Y023876
X034798Y026416
X032258Y026416
X029718Y026416
X027178Y026416
T07
X024284Y018887
X024284Y016347
X024284Y013807
X024284Y011267
T08
X062237Y039425
X062237Y036885
X062237Y034345
X062237Y031805
X062237Y029265
X062237Y026725
X062237Y024185
X062237Y021645
X062237Y019105
X062237Y016565
X062237Y014025
X062237Y011485
X041917Y039425
X041917Y036885
X041917Y034345
X041917Y031805
X041917Y029265
X041917Y026725
X041917Y024185
X041917Y021645
X041917Y019105
X041917Y016565
X041917Y014025
X041917Y011485
X041917Y041965
X041917Y044505
X041917Y047045
X041917Y049585
T09
X039369Y003810
X039370Y001270
X036830Y003810
X036830Y001270
X034290Y003810
X034290Y001270
X031750Y003810
X031750Y001270
X029210Y003810
X029210Y001270
X026670Y003810
X026670Y001270
X024130Y003810
X024130Y001270
X021590Y003810
X021590Y001270
X019050Y003810
X019050Y001270
X016510Y003810
X016510Y001270
X013970Y003810
X013970Y001270
X011430Y003810
X011430Y001270
X008890Y003810
X008890Y001270
X006350Y003810
X006350Y001270
T10
X060967Y053395
X043187Y053395
M30
