G04 ---------------------------- Layer name :TOP SILK LAYER*
G04 EasyEDA v5.6.15, Thu, 02 Aug 2018 08:18:31 GMT*
G04 cc4900fb0f2e4d9197698a7e792d27c9*
G04 Gerber Generator version 0.2*
G04 Scale: 100 percent, Rotated: No, Reflected: No *
G04 Dimensions in millimeters *
G04 leading zeros omitted , absolute positions ,3 integer and 3 decimal *
%FSLAX33Y33*%
%MOMM*%
G90*
G71D02*

%ADD10C,0.254000*%
%ADD22C,0.228600*%
%ADD23C,0.177800*%
%ADD24C,0.152400*%

%LPD*%
G54D10*
G01X4064Y41656D02*
G01X8128Y41656D01*
G01X8636Y41656D01*
G01X8636Y41148D01*
G01X8128Y41148D01*
G01X8128Y40132D01*
G01X8636Y40132D01*
G01X8636Y38608D01*
G01X8128Y38608D01*
G01X8128Y37592D01*
G01X8636Y37592D01*
G01X8636Y36068D01*
G01X8128Y36068D01*
G01X8128Y35052D01*
G01X8636Y35052D01*
G01X8636Y34544D01*
G01X8128Y34544D01*
G01X4572Y34544D01*
G01X1524Y34544D01*
G01X1524Y41656D01*
G01X4572Y41656D01*
G01X5080Y39116D02*
G01X5080Y37084D01*
G01X6096Y38100D02*
G01X4064Y38100D01*
G01X4064Y32766D02*
G01X8128Y32766D01*
G01X8636Y32766D01*
G01X8636Y32258D01*
G01X8128Y32258D01*
G01X8128Y31242D01*
G01X8636Y31242D01*
G01X8636Y29718D01*
G01X8128Y29718D01*
G01X8128Y28702D01*
G01X8636Y28702D01*
G01X8636Y27178D01*
G01X8128Y27178D01*
G01X8128Y26162D01*
G01X8636Y26162D01*
G01X8636Y25654D01*
G01X8128Y25654D01*
G01X4572Y25654D01*
G01X1524Y25654D01*
G01X1524Y32766D01*
G01X4572Y32766D01*
G01X5080Y30226D02*
G01X5080Y28194D01*
G01X6096Y29210D02*
G01X4064Y29210D01*
G01X4064Y23876D02*
G01X8128Y23876D01*
G01X8636Y23876D01*
G01X8636Y23368D01*
G01X8128Y23368D01*
G01X8128Y22352D01*
G01X8636Y22352D01*
G01X8636Y20828D01*
G01X8128Y20828D01*
G01X8128Y19812D01*
G01X8636Y19812D01*
G01X8636Y18288D01*
G01X8128Y18288D01*
G01X8128Y17272D01*
G01X8636Y17272D01*
G01X8636Y16764D01*
G01X8128Y16764D01*
G01X4572Y16764D01*
G01X1524Y16764D01*
G01X1524Y23876D01*
G01X4572Y23876D01*
G01X5080Y21336D02*
G01X5080Y19304D01*
G01X6096Y20320D02*
G01X4064Y20320D01*
G01X19685Y20955D02*
G01X19685Y19177D01*
G01X19431Y18923D02*
G01X19050Y18923D01*
G01X18923Y19050D02*
G01X19050Y18923D01*
G01X19431Y21209D02*
G01X19050Y21209D01*
G01X18923Y21082D02*
G01X19050Y21209D01*
G01X14097Y19050D02*
G01X13970Y18923D01*
G01X14097Y19050D02*
G01X18923Y19050D01*
G01X14097Y21082D02*
G01X13970Y21209D01*
G01X14097Y21082D02*
G01X18923Y21082D01*
G01X13589Y18923D02*
G01X13970Y18923D01*
G01X13589Y21209D02*
G01X13970Y21209D01*
G01X13335Y20955D02*
G01X13335Y19177D01*
G54D22*
G01X21590Y49530D02*
G01X1270Y49530D01*
G01X1270Y44450D01*
G01X21590Y44450D01*
G01X21590Y49530D01*
G01X13970Y41910D02*
G01X13970Y21590D01*
G01X19050Y21590D01*
G01X19050Y41910D01*
G01X13970Y41910D01*
G01X21590Y13970D02*
G01X1270Y13970D01*
G01X1270Y8890D01*
G01X21590Y8890D01*
G01X21590Y13970D01*
G54D10*
G01X37113Y17879D02*
G01X25937Y17879D01*
G01X25937Y861D01*
G01X37113Y861D01*
G01X37113Y17879D01*
G01X23876Y19304D02*
G01X39175Y19304D01*
G01X23876Y19304D02*
G01X23876Y60104D01*
G01X39116Y19304D02*
G01X39116Y60104D01*
G01X23876Y60198D02*
G01X28956Y60198D01*
G01X28956Y55880D02*
G01X34290Y55880D01*
G01X34290Y60198D01*
G01X33020Y60198D01*
G01X33020Y63246D01*
G01X30226Y63246D01*
G01X30226Y60198D01*
G01X28956Y60198D01*
G01X28956Y55880D01*
G01X34290Y60198D02*
G01X39116Y60198D01*
G01X19685Y18669D02*
G01X19685Y16891D01*
G01X19431Y16637D02*
G01X19050Y16637D01*
G01X18923Y16764D02*
G01X19050Y16637D01*
G01X19431Y18923D02*
G01X19050Y18923D01*
G01X18923Y18796D02*
G01X19050Y18923D01*
G01X14097Y16764D02*
G01X13970Y16637D01*
G01X14097Y16764D02*
G01X18923Y16764D01*
G01X14097Y18796D02*
G01X13970Y18923D01*
G01X14097Y18796D02*
G01X18923Y18796D01*
G01X13589Y16637D02*
G01X13970Y16637D01*
G01X13589Y18923D02*
G01X13970Y18923D01*
G01X13335Y18669D02*
G01X13335Y16891D01*
G54D23*
G01X3810Y36550D02*
G01X3810Y35460D01*
G01X3810Y36550D02*
G01X4277Y36550D01*
G01X4432Y36499D01*
G01X4485Y36449D01*
G01X4536Y36344D01*
G01X4536Y36240D01*
G01X4485Y36136D01*
G01X4432Y36083D01*
G01X4277Y36032D01*
G01X3810Y36032D01*
G01X4173Y36032D02*
G01X4536Y35460D01*
G01X4879Y36344D02*
G01X4983Y36395D01*
G01X5140Y36550D01*
G01X5140Y35460D01*
G01X3810Y27533D02*
G01X3810Y26443D01*
G01X3810Y27533D02*
G01X4277Y27533D01*
G01X4432Y27482D01*
G01X4485Y27432D01*
G01X4536Y27327D01*
G01X4536Y27223D01*
G01X4485Y27119D01*
G01X4432Y27066D01*
G01X4277Y27015D01*
G01X3810Y27015D01*
G01X4173Y27015D02*
G01X4536Y26443D01*
G01X4932Y27274D02*
G01X4932Y27327D01*
G01X4983Y27432D01*
G01X5036Y27482D01*
G01X5140Y27533D01*
G01X5346Y27533D01*
G01X5450Y27482D01*
G01X5504Y27432D01*
G01X5554Y27327D01*
G01X5554Y27223D01*
G01X5504Y27119D01*
G01X5400Y26962D01*
G01X4879Y26443D01*
G01X5608Y26443D01*
G01X3810Y18516D02*
G01X3810Y17426D01*
G01X3810Y18516D02*
G01X4277Y18516D01*
G01X4432Y18465D01*
G01X4485Y18415D01*
G01X4536Y18310D01*
G01X4536Y18206D01*
G01X4485Y18102D01*
G01X4432Y18049D01*
G01X4277Y17998D01*
G01X3810Y17998D01*
G01X4173Y17998D02*
G01X4536Y17426D01*
G01X4983Y18516D02*
G01X5554Y18516D01*
G01X5245Y18102D01*
G01X5400Y18102D01*
G01X5504Y18049D01*
G01X5554Y17998D01*
G01X5608Y17843D01*
G01X5608Y17739D01*
G01X5554Y17581D01*
G01X5450Y17477D01*
G01X5295Y17426D01*
G01X5140Y17426D01*
G01X4983Y17477D01*
G01X4932Y17531D01*
G01X4879Y17635D01*
G01X17526Y20802D02*
G01X17526Y19712D01*
G01X17526Y20802D02*
G01X17993Y20802D01*
G01X18148Y20751D01*
G01X18201Y20701D01*
G01X18252Y20596D01*
G01X18252Y20492D01*
G01X18201Y20388D01*
G01X18148Y20335D01*
G01X17993Y20284D01*
G01X17526Y20284D01*
G01X17889Y20284D02*
G01X18252Y19712D01*
G01X19220Y20802D02*
G01X18699Y20802D01*
G01X18648Y20335D01*
G01X18699Y20388D01*
G01X18856Y20439D01*
G01X19011Y20439D01*
G01X19166Y20388D01*
G01X19270Y20284D01*
G01X19324Y20129D01*
G01X19324Y20025D01*
G01X19270Y19867D01*
G01X19166Y19763D01*
G01X19011Y19712D01*
G01X18856Y19712D01*
G01X18699Y19763D01*
G01X18648Y19817D01*
G01X18595Y19921D01*
G01X10668Y47498D02*
G01X10668Y46720D01*
G01X10718Y46563D01*
G01X10822Y46459D01*
G01X10980Y46408D01*
G01X11084Y46408D01*
G01X11239Y46459D01*
G01X11343Y46563D01*
G01X11394Y46720D01*
G01X11394Y47498D01*
G01X11737Y47292D02*
G01X11841Y47343D01*
G01X11998Y47498D01*
G01X11998Y46408D01*
G01X16255Y31221D02*
G01X17033Y31221D01*
G01X17190Y31272D01*
G01X17294Y31376D01*
G01X17345Y31534D01*
G01X17345Y31638D01*
G01X17294Y31793D01*
G01X17190Y31897D01*
G01X17033Y31948D01*
G01X16255Y31948D01*
G01X16515Y32344D02*
G01X16461Y32344D01*
G01X16357Y32395D01*
G01X16306Y32448D01*
G01X16255Y32552D01*
G01X16255Y32758D01*
G01X16306Y32862D01*
G01X16357Y32915D01*
G01X16461Y32966D01*
G01X16565Y32966D01*
G01X16669Y32915D01*
G01X16827Y32811D01*
G01X17345Y32290D01*
G01X17345Y33019D01*
G01X13716Y12446D02*
G01X13716Y11668D01*
G01X13766Y11511D01*
G01X13870Y11407D01*
G01X14028Y11356D01*
G01X14132Y11356D01*
G01X14287Y11407D01*
G01X14391Y11511D01*
G01X14442Y11668D01*
G01X14442Y12446D01*
G01X14889Y12446D02*
G01X15460Y12446D01*
G01X15151Y12032D01*
G01X15306Y12032D01*
G01X15410Y11978D01*
G01X15460Y11927D01*
G01X15514Y11772D01*
G01X15514Y11668D01*
G01X15460Y11511D01*
G01X15356Y11407D01*
G01X15201Y11356D01*
G01X15046Y11356D01*
G01X14889Y11407D01*
G01X14838Y11460D01*
G01X14785Y11564D01*
G01X28132Y10668D02*
G01X28132Y9578D01*
G01X28132Y10668D02*
G01X28599Y10668D01*
G01X28754Y10617D01*
G01X28808Y10566D01*
G01X28858Y10462D01*
G01X28858Y10304D01*
G01X28808Y10200D01*
G01X28754Y10149D01*
G01X28599Y10096D01*
G01X28132Y10096D01*
G01X29514Y10668D02*
G01X29410Y10617D01*
G01X29306Y10513D01*
G01X29255Y10408D01*
G01X29201Y10253D01*
G01X29201Y9994D01*
G01X29255Y9837D01*
G01X29306Y9733D01*
G01X29410Y9629D01*
G01X29514Y9578D01*
G01X29722Y9578D01*
G01X29826Y9629D01*
G01X29930Y9733D01*
G01X29981Y9837D01*
G01X30035Y9994D01*
G01X30035Y10253D01*
G01X29981Y10408D01*
G01X29930Y10513D01*
G01X29826Y10617D01*
G01X29722Y10668D01*
G01X29514Y10668D01*
G01X30377Y10668D02*
G01X30377Y9578D01*
G01X30377Y9578D02*
G01X31000Y9578D01*
G01X31343Y10668D02*
G01X31343Y9890D01*
G01X31396Y9733D01*
G01X31498Y9629D01*
G01X31655Y9578D01*
G01X31759Y9578D01*
G01X31914Y9629D01*
G01X32018Y9733D01*
G01X32069Y9890D01*
G01X32069Y10668D01*
G01X32412Y10668D02*
G01X32412Y9578D01*
G01X32412Y9578D02*
G01X33037Y9578D01*
G01X33380Y10668D02*
G01X33380Y9890D01*
G01X33430Y9733D01*
G01X33535Y9629D01*
G01X33692Y9578D01*
G01X33796Y9578D01*
G01X33951Y9629D01*
G01X34055Y9733D01*
G01X34106Y9890D01*
G01X34106Y10668D01*
G54D24*
G01X27883Y14836D02*
G01X27942Y14894D01*
G01X27969Y14980D01*
G01X27969Y15095D01*
G01X27942Y15181D01*
G01X27883Y15240D01*
G01X27827Y15240D01*
G01X27769Y15212D01*
G01X27738Y15181D01*
G01X27710Y15125D01*
G01X27652Y14950D01*
G01X27624Y14894D01*
G01X27596Y14864D01*
G01X27538Y14836D01*
G01X27451Y14836D01*
G01X27393Y14894D01*
G01X27365Y14980D01*
G01X27365Y15095D01*
G01X27393Y15181D01*
G01X27451Y15240D01*
G01X27969Y14645D02*
G01X27365Y14645D01*
G01X27969Y14241D02*
G01X27365Y14241D01*
G01X27682Y14645D02*
G01X27682Y14241D01*
G01X27969Y14051D02*
G01X27365Y14051D01*
G01X27969Y14051D02*
G01X27969Y13848D01*
G01X27942Y13761D01*
G01X27883Y13703D01*
G01X27827Y13675D01*
G01X27738Y13647D01*
G01X27596Y13647D01*
G01X27510Y13675D01*
G01X27451Y13703D01*
G01X27393Y13761D01*
G01X27365Y13848D01*
G01X27365Y14051D01*
G01X27969Y13456D02*
G01X27365Y13456D01*
G01X27969Y13456D02*
G01X27365Y13053D01*
G01X27969Y13053D02*
G01X27365Y13053D01*
G01X30509Y15240D02*
G01X29905Y15008D01*
G01X30509Y14777D02*
G01X29905Y15008D01*
G01X30509Y14587D02*
G01X29905Y14587D01*
G01X30509Y14396D02*
G01X29905Y14396D01*
G01X30509Y14396D02*
G01X29905Y13992D01*
G01X30509Y13992D02*
G01X29905Y13992D01*
G01X32907Y14808D02*
G01X32963Y14836D01*
G01X33022Y14894D01*
G01X33049Y14950D01*
G01X33049Y15067D01*
G01X33022Y15125D01*
G01X32963Y15181D01*
G01X32907Y15212D01*
G01X32818Y15240D01*
G01X32676Y15240D01*
G01X32590Y15212D01*
G01X32531Y15181D01*
G01X32473Y15125D01*
G01X32445Y15067D01*
G01X32445Y14950D01*
G01X32473Y14894D01*
G01X32531Y14836D01*
G01X32590Y14808D01*
G01X32676Y14808D01*
G01X32676Y14950D02*
G01X32676Y14808D01*
G01X33049Y14617D02*
G01X32445Y14617D01*
G01X33049Y14617D02*
G01X32445Y14211D01*
G01X33049Y14211D02*
G01X32445Y14211D01*
G01X33049Y14020D02*
G01X32445Y14020D01*
G01X33049Y14020D02*
G01X33049Y13820D01*
G01X33022Y13733D01*
G01X32963Y13675D01*
G01X32907Y13647D01*
G01X32818Y13616D01*
G01X32676Y13616D01*
G01X32590Y13647D01*
G01X32531Y13675D01*
G01X32473Y13733D01*
G01X32445Y13820D01*
G01X32445Y14020D01*
G01X35589Y15240D02*
G01X34985Y15008D01*
G01X35589Y14777D02*
G01X34985Y15008D01*
G01X35589Y14414D02*
G01X35562Y14472D01*
G01X35503Y14528D01*
G01X35447Y14559D01*
G01X35358Y14587D01*
G01X35216Y14587D01*
G01X35130Y14559D01*
G01X35071Y14528D01*
G01X35013Y14472D01*
G01X34985Y14414D01*
G01X34985Y14300D01*
G01X35013Y14241D01*
G01X35071Y14183D01*
G01X35130Y14155D01*
G01X35216Y14124D01*
G01X35358Y14124D01*
G01X35447Y14155D01*
G01X35503Y14183D01*
G01X35562Y14241D01*
G01X35589Y14300D01*
G01X35589Y14414D01*
G01X35589Y13934D02*
G01X35158Y13934D01*
G01X35071Y13906D01*
G01X35013Y13848D01*
G01X34985Y13761D01*
G01X34985Y13703D01*
G01X35013Y13616D01*
G01X35071Y13561D01*
G01X35158Y13530D01*
G01X35589Y13530D01*
G01X35589Y13139D02*
G01X34985Y13139D01*
G01X35589Y13340D02*
G01X35589Y12936D01*
G54D23*
G01X55880Y41147D02*
G01X56969Y40731D01*
G01X55880Y41147D02*
G01X56969Y41561D01*
G01X56606Y40886D02*
G01X56606Y41407D01*
G01X55880Y42529D02*
G01X56969Y42529D01*
G01X56398Y42529D02*
G01X56294Y42425D01*
G01X56243Y42321D01*
G01X56243Y42166D01*
G01X56294Y42062D01*
G01X56398Y41958D01*
G01X56553Y41904D01*
G01X56657Y41904D01*
G01X56814Y41958D01*
G01X56918Y42062D01*
G01X56969Y42166D01*
G01X56969Y42321D01*
G01X56918Y42425D01*
G01X56814Y42529D01*
G01X56243Y43494D02*
G01X56969Y43494D01*
G01X56398Y43494D02*
G01X56294Y43390D01*
G01X56243Y43286D01*
G01X56243Y43131D01*
G01X56294Y43027D01*
G01X56398Y42923D01*
G01X56553Y42872D01*
G01X56657Y42872D01*
G01X56814Y42923D01*
G01X56918Y43027D01*
G01X56969Y43131D01*
G01X56969Y43286D01*
G01X56918Y43390D01*
G01X56814Y43494D01*
G01X55880Y43837D02*
G01X56969Y43837D01*
G01X56243Y44439D02*
G01X56294Y44338D01*
G01X56398Y44234D01*
G01X56553Y44180D01*
G01X56657Y44180D01*
G01X56814Y44234D01*
G01X56918Y44338D01*
G01X56969Y44439D01*
G01X56969Y44597D01*
G01X56918Y44701D01*
G01X56814Y44805D01*
G01X56657Y44856D01*
G01X56553Y44856D01*
G01X56398Y44805D01*
G01X56294Y44701D01*
G01X56243Y44597D01*
G01X56243Y44439D01*
G01X56243Y45824D02*
G01X57073Y45824D01*
G01X57228Y45770D01*
G01X57282Y45719D01*
G01X57332Y45615D01*
G01X57332Y45458D01*
G01X57282Y45354D01*
G01X56398Y45824D02*
G01X56294Y45719D01*
G01X56243Y45615D01*
G01X56243Y45458D01*
G01X56294Y45354D01*
G01X56398Y45252D01*
G01X56553Y45199D01*
G01X56657Y45199D01*
G01X56814Y45252D01*
G01X56918Y45354D01*
G01X56969Y45458D01*
G01X56969Y45615D01*
G01X56918Y45719D01*
G01X56814Y45824D01*
G01X56243Y46789D02*
G01X57073Y46789D01*
G01X57228Y46738D01*
G01X57282Y46685D01*
G01X57332Y46581D01*
G01X57332Y46426D01*
G01X57282Y46321D01*
G01X56398Y46789D02*
G01X56294Y46685D01*
G01X56243Y46581D01*
G01X56243Y46426D01*
G01X56294Y46321D01*
G01X56398Y46217D01*
G01X56553Y46167D01*
G01X56657Y46167D01*
G01X56814Y46217D01*
G01X56918Y46321D01*
G01X56969Y46426D01*
G01X56969Y46581D01*
G01X56918Y46685D01*
G01X56814Y46789D01*
G01X56553Y47132D02*
G01X56553Y47754D01*
G01X56451Y47754D01*
G01X56347Y47703D01*
G01X56294Y47652D01*
G01X56243Y47548D01*
G01X56243Y47391D01*
G01X56294Y47287D01*
G01X56398Y47183D01*
G01X56553Y47132D01*
G01X56657Y47132D01*
G01X56814Y47183D01*
G01X56918Y47287D01*
G01X56969Y47391D01*
G01X56969Y47548D01*
G01X56918Y47652D01*
G01X56814Y47754D01*
G01X56243Y48097D02*
G01X56969Y48097D01*
G01X56553Y48097D02*
G01X56398Y48150D01*
G01X56294Y48254D01*
G01X56243Y48359D01*
G01X56243Y48513D01*
G01X28448Y35704D02*
G01X28448Y34978D01*
G01X28448Y35496D02*
G01X28602Y35653D01*
G01X28707Y35704D01*
G01X28864Y35704D01*
G01X28968Y35653D01*
G01X29019Y35496D01*
G01X29019Y34978D01*
G01X29362Y36068D02*
G01X29362Y34978D01*
G01X29362Y36068D02*
G01X29829Y36068D01*
G01X29984Y36017D01*
G01X30038Y35966D01*
G01X30088Y35862D01*
G01X30088Y35758D01*
G01X30038Y35653D01*
G01X29984Y35600D01*
G01X29829Y35549D01*
G01X29362Y35549D01*
G01X29725Y35549D02*
G01X30088Y34978D01*
G01X30431Y36068D02*
G01X30431Y34978D01*
G01X30431Y36068D02*
G01X31107Y36068D01*
G01X30431Y35549D02*
G01X30848Y35549D01*
G01X31503Y35808D02*
G01X31503Y35862D01*
G01X31554Y35966D01*
G01X31607Y36017D01*
G01X31711Y36068D01*
G01X31917Y36068D01*
G01X32021Y36017D01*
G01X32075Y35966D01*
G01X32125Y35862D01*
G01X32125Y35758D01*
G01X32075Y35653D01*
G01X31970Y35496D01*
G01X31450Y34978D01*
G01X32179Y34978D01*
G01X33040Y36068D02*
G01X32522Y35341D01*
G01X33299Y35341D01*
G01X33040Y36068D02*
G01X33040Y34978D01*
G01X34112Y35913D02*
G01X34112Y34978D01*
G01X33642Y35445D02*
G01X34579Y35445D01*
G01X24384Y12224D02*
G01X25473Y12224D01*
G01X24384Y12224D02*
G01X24384Y12692D01*
G01X24434Y12847D01*
G01X24485Y12900D01*
G01X24589Y12951D01*
G01X24693Y12951D01*
G01X24798Y12900D01*
G01X24851Y12847D01*
G01X24902Y12692D01*
G01X24902Y12224D01*
G01X24902Y12588D02*
G01X25473Y12951D01*
G01X24538Y13919D02*
G01X24434Y13865D01*
G01X24384Y13710D01*
G01X24384Y13606D01*
G01X24434Y13451D01*
G01X24589Y13347D01*
G01X24851Y13294D01*
G01X25110Y13294D01*
G01X25318Y13347D01*
G01X25422Y13451D01*
G01X25473Y13606D01*
G01X25473Y13660D01*
G01X25422Y13815D01*
G01X25318Y13919D01*
G01X25161Y13969D01*
G01X25110Y13969D01*
G01X24955Y13919D01*
G01X24851Y13815D01*
G01X24798Y13660D01*
G01X24798Y13606D01*
G01X24851Y13451D01*
G01X24955Y13347D01*
G01X25110Y13294D01*
G01X17272Y18288D02*
G01X17272Y17198D01*
G01X17272Y18288D02*
G01X17739Y18288D01*
G01X17894Y18237D01*
G01X17947Y18186D01*
G01X17998Y18082D01*
G01X17998Y17978D01*
G01X17947Y17873D01*
G01X17894Y17820D01*
G01X17739Y17769D01*
G01X17272Y17769D01*
G01X17635Y17769D02*
G01X17998Y17198D01*
G01X19070Y18288D02*
G01X18549Y17198D01*
G01X18341Y18288D02*
G01X19070Y18288D01*
G54D10*
G75*
G01X2438Y40665D02*
G3X2438Y40668I76J1D01*
G01*
G75*
G01X3945Y38100D02*
G3X3945Y38120I1136J10D01*
G01*
G75*
G01X2438Y31775D02*
G3X2438Y31778I76J1D01*
G01*
G75*
G01X3945Y29210D02*
G3X3945Y29230I1136J10D01*
G01*
G75*
G01X2438Y22885D02*
G3X2438Y22888I76J1D01*
G01*
G75*
G01X3945Y20320D02*
G3X3945Y20340I1136J10D01*
G01*
G75*
G01X19685Y19177D02*
G2X19431Y18923I-254J0D01*
G01*
G75*
G01X19685Y20955D02*
G3X19431Y21209I-254J0D01*
G01*
G75*
G01X13589Y21209D02*
G3X13335Y20955I0J-254D01*
G01*
G75*
G01X13589Y18923D02*
G2X13335Y19177I0J254D01*
G01*
G75*
G01X19685Y16891D02*
G2X19431Y16637I-254J0D01*
G01*
G75*
G01X19685Y18669D02*
G3X19431Y18923I-254J0D01*
G01*
G75*
G01X13589Y18923D02*
G3X13335Y18669I0J-254D01*
G01*
G75*
G01X13589Y16637D02*
G2X13335Y16891I0J254D01*
G01*
G75*
G01X20574Y48768D02*
G03X20574Y48768I-254J0D01*
G01*
G75*
G01X14986Y40640D02*
G03X14986Y40640I-254J0D01*
G01*
G75*
G01X20574Y13208D02*
G03X20574Y13208I-254J0D01*
G01*
G75*
G01X24872Y15240D02*
G03X24872Y15240I-1250J0D01*
G01*
M00*
M02*
