G04 ---------------------------- Layer name :BOTTOM LAYER*
G04 EasyEDA v5.6.15, Thu, 02 Aug 2018 08:18:31 GMT*
G04 cc4900fb0f2e4d9197698a7e792d27c9*
G04 Gerber Generator version 0.2*
G04 Scale: 100 percent, Rotated: No, Reflected: No *
G04 Dimensions in millimeters *
G04 leading zeros omitted , absolute positions ,3 integer and 3 decimal *
%FSLAX33Y33*%
%MOMM*%
G90*
G71D02*

%ADD11C,0.202997*%
%ADD12R,1.574800X1.574800*%
%ADD13C,1.574800*%
%ADD14C,1.199896*%
%ADD15C,1.524000*%
%ADD16R,1.211580X1.211580*%
%ADD17R,1.397000X1.397000*%
%ADD18C,1.397000*%
%ADD19C,3.810000*%
%ADD20C,1.778000*%
%ADD21R,1.524000X1.524000*%

%LPD*%
G54D11*
G01X20320Y50800D02*
G01X20320Y49819D01*
G01X20320Y15240D02*
G01X20320Y16220D01*
G01X20320Y16220D02*
G01X19339Y17200D01*
G01X19339Y48839D01*
G01X20320Y49819D01*
G01X23622Y14340D02*
G01X23622Y4064D01*
G01X22098Y2540D01*
G01X62237Y26471D02*
G01X58343Y22578D01*
G01X36802Y22578D01*
G01X36802Y22578D01*
G01X35306Y21082D01*
G01X12700Y38100D02*
G01X16510Y41910D01*
G01X16510Y49530D01*
G01X17780Y50800D01*
G01X17780Y15240D02*
G01X17780Y33020D01*
G01X12700Y38100D01*
G01X2540Y15240D02*
G01X2540Y20320D01*
G01X32796Y16609D02*
G01X40713Y8691D01*
G01X41917Y8691D01*
G01X28729Y21082D02*
G01X28729Y20675D01*
G01X32796Y16609D01*
G01X10160Y7620D02*
G01X10160Y5842D01*
G01X13462Y2540D01*
G01X10160Y15240D02*
G01X10160Y7620D01*
G01X10160Y43180D02*
G01X10160Y50800D01*
G01X12700Y35560D02*
G01X10160Y38100D01*
G01X10160Y43180D01*
G01X12700Y30480D02*
G01X13723Y31503D01*
G01X13723Y34536D01*
G01X12700Y35560D01*
G01X11430Y17780D02*
G01X11430Y16893D01*
G01X10160Y15240D02*
G01X10160Y15623D01*
G01X11430Y16893D01*
G01X28209Y21082D02*
G01X21879Y27409D01*
G01X21879Y28920D01*
G01X20320Y30480D01*
G01X28209Y21082D02*
G01X28729Y21082D01*
G01X27686Y21082D02*
G01X28209Y21082D01*
G01X41917Y8691D02*
G01X47244Y3365D01*
G01X47244Y2540D01*
G01X11430Y17780D02*
G01X11430Y20066D01*
G01X12700Y25400D02*
G01X16510Y21590D01*
G01X16510Y15120D01*
G01X17371Y14259D01*
G01X21259Y14259D01*
G01X22240Y15240D01*
G01X23972Y15240D01*
G01X29718Y9494D01*
G01X29718Y2540D01*
G01X62237Y36631D02*
G01X53347Y27741D01*
G01X37787Y27741D01*
G01X34036Y23990D01*
G01X34036Y23373D01*
G01X32893Y22232D01*
G01X32194Y22232D01*
G01X31671Y21706D01*
G01X31671Y20274D01*
G01X35336Y16609D01*
G01X12700Y27940D02*
G01X11719Y26959D01*
G01X11719Y22273D01*
G01X14038Y19954D01*
G01X14038Y14295D01*
G01X18966Y9367D01*
G01X18966Y4157D01*
G01X21805Y1320D01*
G01X25958Y1320D01*
G01X27178Y2540D01*
G01X7620Y50800D02*
G01X8742Y49677D01*
G01X8742Y24706D01*
G01X12319Y21132D01*
G01X12319Y16283D01*
G01X11640Y15605D01*
G01X11640Y6901D01*
G01X16002Y2540D01*
G01X21590Y17780D02*
G01X22476Y17780D01*
G01X22476Y17780D02*
G01X22476Y17284D01*
G01X23622Y16139D01*
G01X18542Y2540D02*
G01X17472Y2540D01*
G01X17472Y2540D02*
G01X17472Y2273D01*
G01X16545Y1346D01*
G01X10452Y1346D01*
G01X6350Y5448D01*
G01X6350Y49530D01*
G01X5080Y50800D01*
G01X2540Y43180D02*
G01X5080Y40640D01*
G01X20320Y27940D02*
G01X20320Y25400D01*
G01X2540Y50800D02*
G01X1455Y49715D01*
G01X1455Y39184D01*
G01X2540Y38100D01*
G01X12700Y15240D02*
G01X12700Y10160D01*
G01X15240Y7620D01*
G01X41917Y36631D02*
G01X46799Y31750D01*
G01X51816Y31750D01*
G01X62237Y11231D02*
G01X53545Y2540D01*
G01X52324Y2540D01*
G01X2540Y7620D02*
G01X3583Y8663D01*
G01X3583Y21363D01*
G01X5080Y22860D01*
G01X15240Y43180D02*
G01X12700Y45720D01*
G01X12700Y50800D01*
G01X59944Y2540D02*
G01X58874Y2540D01*
G01X30256Y16609D02*
G01X43182Y3683D01*
G01X43182Y2298D01*
G01X44013Y1470D01*
G01X58074Y1470D01*
G01X58874Y2273D01*
G01X58874Y2540D01*
G01X62237Y29011D02*
G01X58427Y25201D01*
G01X38361Y25201D01*
G01X35648Y22486D01*
G01X34173Y22486D01*
G01X32766Y21082D01*
G01X41917Y46791D02*
G01X51816Y36893D01*
G01X51816Y36830D01*
G54D12*
G01X59944Y2540D03*
G54D13*
G01X57404Y2540D03*
G54D14*
G01X8011Y2540D03*
G01X6212Y2540D03*
G54D12*
G01X18542Y2540D03*
G54D13*
G01X16002Y2540D03*
G01X13462Y2540D03*
G01X10922Y2540D03*
G54D12*
G01X29718Y2540D03*
G54D13*
G01X27178Y2540D03*
G01X24638Y2540D03*
G01X22098Y2540D03*
G54D12*
G01X41148Y2540D03*
G54D13*
G01X38608Y2540D03*
G01X36068Y2540D03*
G01X33528Y2540D03*
G54D12*
G01X52324Y2540D03*
G54D13*
G01X49784Y2540D03*
G01X47244Y2540D03*
G01X44704Y2540D03*
G54D12*
G01X51816Y39370D03*
G54D13*
G01X51816Y36830D03*
G01X51816Y34290D03*
G01X51816Y31750D03*
G54D15*
G01X5080Y40640D03*
G01X2540Y38100D03*
G01X5080Y35560D03*
G01X5080Y31750D03*
G01X2540Y29210D03*
G01X5080Y26670D03*
G01X5080Y22860D03*
G01X2540Y20320D03*
G01X5080Y17780D03*
G54D16*
G01X21590Y20066D03*
G01X11430Y20066D03*
G54D17*
G01X20320Y50800D03*
G54D18*
G01X17780Y50800D03*
G01X15240Y50800D03*
G01X12700Y50800D03*
G01X10160Y50800D03*
G01X7620Y50800D03*
G01X5080Y50800D03*
G01X2540Y50800D03*
G01X2540Y43180D03*
G01X5080Y43180D03*
G01X7620Y43180D03*
G01X10160Y43180D03*
G01X12700Y43180D03*
G01X15240Y43180D03*
G01X17780Y43180D03*
G01X20320Y43180D03*
G54D17*
G01X12700Y40640D03*
G54D18*
G01X12700Y38100D03*
G01X12700Y35560D03*
G01X12700Y33020D03*
G01X12700Y30480D03*
G01X12700Y27940D03*
G01X12700Y25400D03*
G01X12700Y22860D03*
G01X20320Y22860D03*
G01X20320Y25400D03*
G01X20320Y27940D03*
G01X20320Y30480D03*
G01X20320Y33020D03*
G01X20320Y35560D03*
G01X20320Y38100D03*
G01X20320Y40640D03*
G54D17*
G01X20320Y15240D03*
G54D18*
G01X17780Y15240D03*
G01X15240Y15240D03*
G01X12700Y15240D03*
G01X10160Y15240D03*
G01X7620Y15240D03*
G01X5080Y15240D03*
G01X2540Y15240D03*
G01X2540Y7620D03*
G01X5080Y7620D03*
G01X7620Y7620D03*
G01X10160Y7620D03*
G01X12700Y7620D03*
G01X15240Y7620D03*
G01X17780Y7620D03*
G01X20320Y7620D03*
G54D15*
G01X35335Y16609D03*
G01X32795Y16609D03*
G01X30255Y16609D03*
G01X27715Y16609D03*
G54D19*
G01X60967Y50601D03*
G01X43187Y50601D03*
G54D20*
G01X62237Y36631D03*
G01X62237Y34091D03*
G01X62237Y31551D03*
G01X62237Y29011D03*
G01X62237Y26471D03*
G01X62237Y23931D03*
G01X62237Y21391D03*
G01X62237Y18851D03*
G01X62237Y16311D03*
G01X62237Y13771D03*
G01X62237Y11231D03*
G01X62237Y8691D03*
G01X41917Y36631D03*
G01X41917Y34091D03*
G01X41917Y31551D03*
G01X41917Y29011D03*
G01X41917Y26471D03*
G01X41917Y23931D03*
G01X41917Y21391D03*
G01X41917Y18851D03*
G01X41917Y16311D03*
G01X41917Y13771D03*
G01X41917Y11231D03*
G01X41917Y8691D03*
G01X41917Y39171D03*
G01X41917Y41711D03*
G01X41917Y44251D03*
G01X41917Y46791D03*
G54D15*
G01X27686Y23622D03*
G01X30226Y23622D03*
G01X32766Y23622D03*
G01X35306Y23622D03*
G54D21*
G01X27686Y21082D03*
G54D15*
G01X30226Y21082D03*
G01X32766Y21082D03*
G01X35306Y21082D03*
G54D14*
G01X23622Y14340D03*
G01X23622Y16139D03*
G54D16*
G01X21590Y17780D03*
G01X11430Y17780D03*
M00*
M02*
