G04 ---------------------------- Layer name :TOP SOLDER LAYER*
G04 EasyEDA v5.6.15, Thu, 02 Aug 2018 08:18:31 GMT*
G04 cc4900fb0f2e4d9197698a7e792d27c9*
G04 Gerber Generator version 0.2*
G04 Scale: 100 percent, Rotated: No, Reflected: No *
G04 Dimensions in millimeters *
G04 leading zeros omitted , absolute positions ,3 integer and 3 decimal *
%FSLAX33Y33*%
%MOMM*%
G90*
G71D02*

%ADD12R,1.778000X1.778000*%
%ADD13C,1.778000*%
%ADD14C,1.403096*%
%ADD15C,1.727200*%
%ADD16R,1.414780X1.414780*%
%ADD17R,1.600200X1.600200*%
%ADD18C,1.600200*%
%ADD19C,4.013200*%
%ADD20C,1.981200*%
%ADD21R,1.727200X1.727200*%

%LPD*%
G54D12*
G01X59944Y2540D03*
G54D13*
G01X57404Y2540D03*
G54D14*
G01X8011Y2540D03*
G01X6212Y2540D03*
G54D12*
G01X18542Y2540D03*
G54D13*
G01X16002Y2540D03*
G01X13462Y2540D03*
G01X10922Y2540D03*
G54D12*
G01X29718Y2540D03*
G54D13*
G01X27178Y2540D03*
G01X24638Y2540D03*
G01X22098Y2540D03*
G54D12*
G01X41148Y2540D03*
G54D13*
G01X38608Y2540D03*
G01X36068Y2540D03*
G01X33528Y2540D03*
G54D12*
G01X52324Y2540D03*
G54D13*
G01X49784Y2540D03*
G01X47244Y2540D03*
G01X44704Y2540D03*
G54D12*
G01X51816Y39370D03*
G54D13*
G01X51816Y36830D03*
G01X51816Y34290D03*
G01X51816Y31750D03*
G54D15*
G01X5080Y40640D03*
G01X2540Y38100D03*
G01X5080Y35560D03*
G01X5080Y31750D03*
G01X2540Y29210D03*
G01X5080Y26670D03*
G01X5080Y22860D03*
G01X2540Y20320D03*
G01X5080Y17780D03*
G54D16*
G01X21590Y20066D03*
G01X11430Y20066D03*
G54D17*
G01X20320Y50800D03*
G54D18*
G01X17780Y50800D03*
G01X15240Y50800D03*
G01X12700Y50800D03*
G01X10160Y50800D03*
G01X7620Y50800D03*
G01X5080Y50800D03*
G01X2540Y50800D03*
G01X2540Y43180D03*
G01X5080Y43180D03*
G01X7620Y43180D03*
G01X10160Y43180D03*
G01X12700Y43180D03*
G01X15240Y43180D03*
G01X17780Y43180D03*
G01X20320Y43180D03*
G54D17*
G01X12700Y40640D03*
G54D18*
G01X12700Y38100D03*
G01X12700Y35560D03*
G01X12700Y33020D03*
G01X12700Y30480D03*
G01X12700Y27940D03*
G01X12700Y25400D03*
G01X12700Y22860D03*
G01X20320Y22860D03*
G01X20320Y25400D03*
G01X20320Y27940D03*
G01X20320Y30480D03*
G01X20320Y33020D03*
G01X20320Y35560D03*
G01X20320Y38100D03*
G01X20320Y40640D03*
G54D17*
G01X20320Y15240D03*
G54D18*
G01X17780Y15240D03*
G01X15240Y15240D03*
G01X12700Y15240D03*
G01X10160Y15240D03*
G01X7620Y15240D03*
G01X5080Y15240D03*
G01X2540Y15240D03*
G01X2540Y7620D03*
G01X5080Y7620D03*
G01X7620Y7620D03*
G01X10160Y7620D03*
G01X12700Y7620D03*
G01X15240Y7620D03*
G01X17780Y7620D03*
G01X20320Y7620D03*
G54D15*
G01X35335Y16609D03*
G01X32795Y16609D03*
G01X30255Y16609D03*
G01X27715Y16609D03*
G54D19*
G01X60967Y50601D03*
G01X43187Y50601D03*
G54D20*
G01X62237Y36631D03*
G01X62237Y34091D03*
G01X62237Y31551D03*
G01X62237Y29011D03*
G01X62237Y26471D03*
G01X62237Y23931D03*
G01X62237Y21391D03*
G01X62237Y18851D03*
G01X62237Y16311D03*
G01X62237Y13771D03*
G01X62237Y11231D03*
G01X62237Y8691D03*
G01X41917Y36631D03*
G01X41917Y34091D03*
G01X41917Y31551D03*
G01X41917Y29011D03*
G01X41917Y26471D03*
G01X41917Y23931D03*
G01X41917Y21391D03*
G01X41917Y18851D03*
G01X41917Y16311D03*
G01X41917Y13771D03*
G01X41917Y11231D03*
G01X41917Y8691D03*
G01X41917Y39171D03*
G01X41917Y41711D03*
G01X41917Y44251D03*
G01X41917Y46791D03*
G54D15*
G01X27686Y23622D03*
G01X30226Y23622D03*
G01X32766Y23622D03*
G01X35306Y23622D03*
G54D21*
G01X27686Y21082D03*
G54D15*
G01X30226Y21082D03*
G01X32766Y21082D03*
G01X35306Y21082D03*
G54D14*
G01X23622Y14340D03*
G01X23622Y16139D03*
G54D16*
G01X21590Y17780D03*
G01X11430Y17780D03*
M00*
M02*
