G04 ---------------------------- Layer name :BOTTOM LAYER*
G04 EasyEDA v5.6.15, Fri, 03 Aug 2018 07:00:42 GMT*
G04 fad3a197975a46e394a3725a2b087312*
G04 Gerber Generator version 0.2*
G04 Scale: 100 percent, Rotated: No, Reflected: No *
G04 Dimensions in millimeters *
G04 leading zeros omitted , absolute positions ,3 integer and 3 decimal *
%FSLAX33Y33*%
%MOMM*%
G90*
G71D02*

%ADD11C,0.202997*%
%ADD12C,0.302006*%
%ADD13C,0.610006*%
%ADD14C,1.524000*%
%ADD15C,1.199896*%
%ADD16R,1.211580X1.211580*%
%ADD17R,1.651000X1.651000*%
%ADD18C,1.651000*%
%ADD19R,1.397000X1.397000*%
%ADD20C,1.397000*%
%ADD21C,3.810000*%
%ADD22C,1.778000*%
%ADD23R,1.699997X1.699997*%
%ADD24C,1.699997*%

%LPD*%
G54D11*
G01X21336Y8890D02*
G01X21336Y12341D01*
G01X24061Y15067D01*
G01X25565Y15067D01*
G01X33647Y23147D01*
G01X21336Y8445D02*
G01X21336Y8890D01*
G01X21336Y8445D02*
G01X21336Y8003D01*
G01X21590Y3810D02*
G01X21590Y7749D01*
G01X21336Y8003D01*
G01X62237Y21645D02*
G01X55887Y15295D01*
G01X55887Y12771D01*
G01X33672Y6177D02*
G01X26042Y13807D01*
G01X24284Y13807D01*
G01X34798Y23876D02*
G01X36024Y23876D01*
G01X38244Y26095D01*
G01X38244Y26388D01*
G01X2540Y45720D02*
G01X5080Y43180D01*
G01X2540Y53340D02*
G01X1455Y52255D01*
G01X1455Y41724D01*
G01X2540Y40640D01*
G01X2540Y12700D02*
G01X3583Y13743D01*
G01X3583Y26443D01*
G01X5080Y27940D01*
G01X2540Y20320D02*
G01X2540Y25400D01*
G01X15189Y41671D02*
G01X15189Y25737D01*
G01X20607Y20320D01*
G01X13680Y43180D02*
G01X15189Y41671D01*
G01X15189Y41671D02*
G01X19339Y45821D01*
G01X19339Y51379D01*
G01X20320Y52359D01*
G01X20320Y53340D02*
G01X20320Y52359D01*
G01X21300Y20320D02*
G01X21300Y20810D01*
G01X26906Y26416D01*
G01X27178Y26416D01*
G01X17764Y2555D02*
G01X19050Y1270D01*
G01X13970Y1270D02*
G01X15255Y2555D01*
G01X17764Y2555D01*
G01X17764Y2555D02*
G01X17764Y7553D01*
G01X19050Y8839D01*
G01X19050Y18762D01*
G01X20607Y20320D01*
G01X12700Y43180D02*
G01X13680Y43180D01*
G01X20607Y20320D02*
G01X21300Y20320D01*
G01X20320Y20320D02*
G01X20607Y20320D01*
G01X34290Y1270D02*
G01X35575Y2555D01*
G01X38084Y2555D01*
G01X39370Y1270D01*
G01X29210Y1270D02*
G01X30495Y2555D01*
G01X33004Y2555D01*
G01X34290Y1270D01*
G01X24130Y1270D02*
G01X25415Y2555D01*
G01X27924Y2555D01*
G01X29210Y1270D01*
G01X19050Y1270D02*
G01X20335Y2555D01*
G01X22844Y2555D01*
G01X24130Y1270D01*
G01X8890Y1270D02*
G01X10175Y2555D01*
G01X12684Y2555D01*
G01X13970Y1270D01*
G01X41917Y26725D02*
G01X53086Y15557D01*
G01X53086Y3556D01*
G54D12*
G01X12700Y33020D02*
G01X10160Y30480D01*
G01X10160Y20320D01*
G01X12700Y33020D02*
G01X11635Y34084D01*
G01X11635Y37035D01*
G01X12700Y38100D01*
G01X10160Y45720D02*
G01X10160Y53340D01*
G01X12700Y38100D02*
G01X10160Y40640D01*
G01X10160Y45720D01*
G01X10160Y12700D02*
G01X10160Y20320D01*
G01X11176Y9847D02*
G01X10160Y10863D01*
G01X10160Y12700D01*
G01X11176Y8890D02*
G01X11176Y9847D01*
G01X41917Y11485D02*
G01X42926Y10477D01*
G01X42926Y3556D01*
G01X24284Y16347D02*
G01X27178Y19240D01*
G01X27178Y23876D01*
G54D11*
G01X12700Y40640D02*
G01X11653Y41686D01*
G01X11653Y47213D01*
G01X17780Y53340D01*
G01X17780Y20320D02*
G01X13723Y24376D01*
G01X13723Y39616D01*
G01X12700Y40640D01*
G01X8890Y3810D02*
G01X8890Y52070D01*
G01X7620Y53340D01*
G01X6350Y3810D02*
G01X6350Y52070D01*
G01X5080Y53340D01*
G01X13970Y3810D02*
G01X13970Y9662D01*
G01X11206Y12425D01*
G01X11206Y28986D01*
G01X12700Y30480D01*
G01X11430Y3810D02*
G01X11978Y3810D01*
G01X13121Y2667D01*
G01X14488Y2667D01*
G01X15110Y3289D01*
G01X15110Y11254D01*
G01X13970Y12392D01*
G01X13970Y13314D01*
G01X11590Y15692D01*
G01X11590Y26830D01*
G01X12700Y27940D01*
G01X20320Y30480D02*
G01X20320Y27940D01*
G01X36830Y3810D02*
G01X40548Y7528D01*
G01X40548Y38056D01*
G01X41917Y39425D01*
G01X34290Y3810D02*
G01X40165Y9685D01*
G01X40165Y42753D01*
G01X41917Y44505D01*
G01X41917Y49585D02*
G01X38834Y46502D01*
G01X38834Y10507D01*
G01X32136Y3810D01*
G01X31750Y3810D01*
G01X32258Y26416D02*
G01X33454Y25219D01*
G01X36443Y25219D01*
G01X36680Y25455D01*
G01X24284Y18887D02*
G01X24284Y23251D01*
G01X26179Y25146D01*
G01X30126Y25146D01*
G01X30988Y26007D01*
G01X30988Y26756D01*
G01X36606Y32374D01*
G01X38244Y32374D01*
G01X12700Y20320D02*
G01X12700Y15240D01*
G01X15240Y12700D01*

%LPD*%
G36*
G01X4418Y43985D02*
G01X5127Y43940D01*
G01X4319Y43132D01*
G01X4274Y43841D01*
G01X4418Y43985D01*
G37*

%LPD*%
G36*
G01X1878Y41445D02*
G01X2587Y41400D01*
G01X1779Y40592D01*
G01X1734Y41301D01*
G01X1878Y41445D01*
G37*

%LPD*%
G36*
G01X4418Y27134D02*
G01X5127Y27179D01*
G01X4319Y27987D01*
G01X4274Y27278D01*
G01X4418Y27134D01*
G37*

%LPD*%
G36*
G01X2641Y24362D02*
G01X3111Y24895D01*
G01X1968Y24895D01*
G01X2438Y24362D01*
G01X2641Y24362D01*
G37*

%LPD*%
G36*
G01X35921Y23774D02*
G01X35344Y23256D01*
G01X35344Y24495D01*
G01X35921Y23977D01*
G01X35921Y23774D01*
G37*

%LPD*%
G36*
G01X33124Y25693D02*
G01X33081Y26467D01*
G01X32206Y25592D01*
G01X32980Y25549D01*
G01X33124Y25693D01*
G37*

%LPD*%
G36*
G01X26318Y25684D02*
G01X27088Y25595D01*
G01X26375Y26607D01*
G01X26199Y25853D01*
G01X26318Y25684D01*
G37*

%LPD*%
G36*
G01X17179Y52595D02*
G01X17823Y52642D01*
G01X17082Y53383D01*
G01X17035Y52739D01*
G01X17179Y52595D01*
G37*

%LPD*%
G36*
G01X10311Y52389D02*
G01X10683Y52877D01*
G01X9636Y52877D01*
G01X10008Y52389D01*
G01X10311Y52389D01*
G37*

%LPD*%
G36*
G01X8364Y52739D02*
G01X8317Y53383D01*
G01X7576Y52642D01*
G01X8220Y52595D01*
G01X8364Y52739D01*
G37*

%LPD*%
G36*
G01X5824Y52739D02*
G01X5777Y53383D01*
G01X5036Y52642D01*
G01X5680Y52595D01*
G01X5824Y52739D01*
G37*

%LPD*%
G36*
G01X1939Y52595D02*
G01X2583Y52642D01*
G01X1842Y53383D01*
G01X1795Y52739D01*
G01X1939Y52595D01*
G37*

%LPD*%
G36*
G01X3284Y45119D02*
G01X3237Y45763D01*
G01X2496Y45022D01*
G01X3140Y44975D01*
G01X3284Y45119D01*
G37*

%LPD*%
G36*
G01X10311Y46670D02*
G01X10683Y46182D01*
G01X9636Y46182D01*
G01X10008Y46670D01*
G01X10311Y46670D01*
G37*

%LPD*%
G36*
G01X10311Y44769D02*
G01X10683Y45257D01*
G01X9636Y45257D01*
G01X10008Y44769D01*
G01X10311Y44769D01*
G37*

%LPD*%
G36*
G01X12099Y41384D02*
G01X12743Y41337D01*
G01X12002Y40596D01*
G01X11955Y41240D01*
G01X12099Y41384D01*
G37*

%LPD*%
G36*
G01X13444Y40039D02*
G01X13397Y40683D01*
G01X12656Y39942D01*
G01X13300Y39895D01*
G01X13444Y40039D01*
G37*

%LPD*%
G36*
G01X12134Y37320D02*
G01X12743Y37402D01*
G01X12002Y38143D01*
G01X11920Y37534D01*
G01X12134Y37320D01*
G37*

%LPD*%
G36*
G01X12134Y38879D02*
G01X12743Y38797D01*
G01X12002Y38056D01*
G01X11920Y38665D01*
G01X12134Y38879D01*
G37*

%LPD*%
G36*
G01X12134Y32240D02*
G01X12743Y32322D01*
G01X12002Y33063D01*
G01X11920Y32454D01*
G01X12134Y32240D01*
G37*

%LPD*%
G36*
G01X12134Y33799D02*
G01X12743Y33717D01*
G01X12002Y32976D01*
G01X11920Y33585D01*
G01X12134Y33799D01*
G37*

%LPD*%
G36*
G01X12099Y29735D02*
G01X12743Y29782D01*
G01X12002Y30523D01*
G01X11955Y29879D01*
G01X12099Y29735D01*
G37*

%LPD*%
G36*
G01X12099Y27195D02*
G01X12743Y27242D01*
G01X12002Y27983D01*
G01X11955Y27339D01*
G01X12099Y27195D01*
G37*

%LPD*%
G36*
G01X20421Y28890D02*
G01X20843Y28402D01*
G01X19796Y28402D01*
G01X20218Y28890D01*
G01X20421Y28890D01*
G37*

%LPD*%
G36*
G01X20421Y29529D02*
G01X20843Y30017D01*
G01X19796Y30017D01*
G01X20218Y29529D01*
G01X20421Y29529D01*
G37*

%LPD*%
G36*
G01X17179Y21064D02*
G01X17823Y21017D01*
G01X17082Y20276D01*
G01X17035Y20920D01*
G01X17179Y21064D01*
G37*

%LPD*%
G36*
G01X12801Y19369D02*
G01X13223Y19857D01*
G01X12176Y19857D01*
G01X12598Y19369D01*
G01X12801Y19369D01*
G37*

%LPD*%
G36*
G01X10311Y21270D02*
G01X10683Y20782D01*
G01X9636Y20782D01*
G01X10008Y21270D01*
G01X10311Y21270D01*
G37*

%LPD*%
G36*
G01X10311Y19369D02*
G01X10683Y19857D01*
G01X9636Y19857D01*
G01X10008Y19369D01*
G01X10311Y19369D01*
G37*

%LPD*%
G36*
G01X2641Y21270D02*
G01X3063Y20782D01*
G01X2016Y20782D01*
G01X2438Y21270D01*
G01X2641Y21270D01*
G37*

%LPD*%
G36*
G01X3284Y13300D02*
G01X3237Y12656D01*
G01X2496Y13397D01*
G01X3140Y13444D01*
G01X3284Y13300D01*
G37*

%LPD*%
G36*
G01X10311Y13650D02*
G01X10683Y13162D01*
G01X9636Y13162D01*
G01X10008Y13650D01*
G01X10311Y13650D01*
G37*

%LPD*%
G36*
G01X10311Y11749D02*
G01X10683Y12237D01*
G01X9636Y12237D01*
G01X10008Y11749D01*
G01X10311Y11749D01*
G37*

%LPD*%
G36*
G01X14639Y13444D02*
G01X15283Y13397D01*
G01X14542Y12656D01*
G01X14495Y13300D01*
G01X14639Y13444D01*
G37*

%LPD*%
G36*
G01X61453Y20718D02*
G01X62293Y20758D01*
G01X61350Y21701D01*
G01X61309Y20861D01*
G01X61453Y20718D01*
G37*

%LPD*%
G36*
G01X41133Y38498D02*
G01X41973Y38538D01*
G01X41030Y39481D01*
G01X40989Y38641D01*
G01X41133Y38498D01*
G37*

%LPD*%
G36*
G01X42845Y25941D02*
G01X42804Y26781D01*
G01X41861Y25838D01*
G01X42701Y25798D01*
G01X42845Y25941D01*
G37*

%LPD*%
G36*
G01X42880Y10736D02*
G01X42804Y11541D01*
G01X41861Y10598D01*
G01X42666Y10523D01*
G01X42880Y10736D01*
G37*

%LPD*%
G36*
G01X41133Y43578D02*
G01X41973Y43618D01*
G01X41030Y44561D01*
G01X40989Y43721D01*
G01X41133Y43578D01*
G37*

%LPD*%
G36*
G01X41133Y48658D02*
G01X41973Y48698D01*
G01X41030Y49641D01*
G01X40989Y48801D01*
G01X41133Y48658D01*
G37*

%LPD*%
G36*
G01X24386Y19924D02*
G01X24856Y19391D01*
G01X23713Y19391D01*
G01X24183Y19924D01*
G01X24386Y19924D01*
G37*

%LPD*%
G36*
G01X25125Y16974D02*
G01X25045Y16299D01*
G01X24237Y17107D01*
G01X24911Y17187D01*
G01X25125Y16974D01*
G37*

%LPD*%
G36*
G01X25322Y13705D02*
G01X24788Y13235D01*
G01X24788Y14378D01*
G01X25322Y13908D01*
G01X25322Y13705D01*
G37*

%LPD*%
G36*
G01X38623Y2160D02*
G01X39423Y2118D01*
G01X38521Y1216D01*
G01X38479Y2016D01*
G01X38623Y2160D01*
G37*

%LPD*%
G36*
G01X37720Y4556D02*
G01X37678Y3756D01*
G01X36776Y4658D01*
G01X37576Y4700D01*
G01X37720Y4556D01*
G37*

%LPD*%
G36*
G01X35180Y4556D02*
G01X35138Y3756D01*
G01X34236Y4658D01*
G01X35036Y4700D01*
G01X35180Y4556D01*
G37*

%LPD*%
G36*
G01X35180Y2016D02*
G01X35138Y1216D01*
G01X34236Y2118D01*
G01X35036Y2160D01*
G01X35180Y2016D01*
G37*

%LPD*%
G36*
G01X33543Y2160D02*
G01X34343Y2118D01*
G01X33441Y1216D01*
G01X33399Y2016D01*
G01X33543Y2160D01*
G37*

%LPD*%
G36*
G01X32792Y4322D02*
G01X32561Y3558D01*
G01X31898Y4646D01*
G01X32683Y4501D01*
G01X32792Y4322D01*
G37*

%LPD*%
G36*
G01X30100Y2016D02*
G01X30058Y1216D01*
G01X29156Y2118D01*
G01X29956Y2160D01*
G01X30100Y2016D01*
G37*

%LPD*%
G36*
G01X28463Y2160D02*
G01X29263Y2118D01*
G01X28361Y1216D01*
G01X28319Y2016D01*
G01X28463Y2160D01*
G37*

%LPD*%
G36*
G01X25020Y2016D02*
G01X24978Y1216D01*
G01X24076Y2118D01*
G01X24876Y2160D01*
G01X25020Y2016D01*
G37*

%LPD*%
G36*
G01X23383Y2160D02*
G01X24183Y2118D01*
G01X23281Y1216D01*
G01X23239Y2016D01*
G01X23383Y2160D01*
G37*

%LPD*%
G36*
G01X21691Y4967D02*
G01X22227Y4372D01*
G01X20952Y4372D01*
G01X21488Y4967D01*
G01X21691Y4967D01*
G37*

%LPD*%
G36*
G01X18303Y2160D02*
G01X19103Y2118D01*
G01X18201Y1216D01*
G01X18159Y2016D01*
G01X18303Y2160D01*
G37*

%LPD*%
G36*
G01X19940Y2016D02*
G01X19898Y1216D01*
G01X18996Y2118D01*
G01X19796Y2160D01*
G01X19940Y2016D01*
G37*

%LPD*%
G36*
G01X14071Y4967D02*
G01X14607Y4372D01*
G01X13332Y4372D01*
G01X13868Y4967D01*
G01X14071Y4967D01*
G37*

%LPD*%
G36*
G01X14860Y2016D02*
G01X14818Y1216D01*
G01X13916Y2118D01*
G01X14716Y2160D01*
G01X14860Y2016D01*
G37*

%LPD*%
G36*
G01X13223Y2160D02*
G01X14023Y2118D01*
G01X13121Y1216D01*
G01X13079Y2016D01*
G01X13223Y2160D01*
G37*

%LPD*%
G36*
G01X12521Y3410D02*
G01X12211Y4144D01*
G01X11664Y2992D01*
G01X12429Y3216D01*
G01X12521Y3410D01*
G37*

%LPD*%
G36*
G01X8991Y4967D02*
G01X9527Y4372D01*
G01X8252Y4372D01*
G01X8788Y4967D01*
G01X8991Y4967D01*
G37*

%LPD*%
G36*
G01X9780Y2016D02*
G01X9738Y1216D01*
G01X8836Y2118D01*
G01X9636Y2160D01*
G01X9780Y2016D01*
G37*

%LPD*%
G36*
G01X6451Y4967D02*
G01X6987Y4372D01*
G01X5712Y4372D01*
G01X6248Y4967D01*
G01X6451Y4967D01*
G37*

%LPD*%
G36*
G01X33425Y22781D02*
G01X33666Y22842D01*
G01X33343Y23166D01*
G01X33282Y22925D01*
G01X33425Y22781D01*
G37*

%LPD*%
G36*
G01X55989Y13186D02*
G01X56116Y12972D01*
G01X55658Y12972D01*
G01X55786Y13186D01*
G01X55989Y13186D01*
G37*

%LPD*%
G36*
G01X33450Y6542D02*
G01X33691Y6481D01*
G01X33368Y6158D01*
G01X33307Y6399D01*
G01X33450Y6542D01*
G37*

%LPD*%
G36*
G01X38248Y25956D02*
G01X38412Y26133D01*
G01X37971Y26253D01*
G01X38023Y26017D01*
G01X38248Y25956D01*
G37*

%LPD*%
G36*
G01X36515Y25147D02*
G01X36699Y25151D01*
G01X36375Y25475D01*
G01X36372Y25291D01*
G01X36515Y25147D01*
G37*

%LPD*%
G36*
G01X37829Y32273D02*
G01X38042Y32146D01*
G01X38042Y32603D01*
G01X37829Y32476D01*
G01X37829Y32273D01*
G37*

%LPD*%
G36*
G01X52984Y4466D02*
G01X52832Y4161D01*
G01X53339Y4161D01*
G01X53187Y4466D01*
G01X52984Y4466D01*
G37*

%LPD*%
G36*
G01X42774Y4614D02*
G01X42548Y4161D01*
G01X43303Y4161D01*
G01X43077Y4614D01*
G01X42774Y4614D01*
G37*

%LPD*%
G36*
G01X27329Y22597D02*
G01X27555Y23050D01*
G01X26800Y23050D01*
G01X27026Y22597D01*
G01X27329Y22597D01*
G37*

%LPD*%
G36*
G01X20421Y52359D02*
G01X20573Y52641D01*
G01X20066Y52641D01*
G01X20218Y52359D01*
G01X20421Y52359D01*
G37*

%LPD*%
G36*
G01X13680Y43281D02*
G01X13398Y43433D01*
G01X13398Y42926D01*
G01X13680Y43078D01*
G01X13680Y43281D01*
G37*

%LPD*%
G36*
G01X19460Y21322D02*
G01X19654Y21018D01*
G01X20162Y21018D01*
G01X19747Y21322D01*
G01X19460Y21322D01*
G37*

%LPD*%
G36*
G01X19747Y19317D02*
G01X20162Y19621D01*
G01X19654Y19621D01*
G01X19460Y19317D01*
G01X19747Y19317D01*
G37*

%LPD*%
G36*
G01X21300Y20421D02*
G01X21018Y20573D01*
G01X21018Y20066D01*
G01X21300Y20218D01*
G01X21300Y20421D01*
G37*

%LPD*%
G36*
G01X21234Y9800D02*
G01X21082Y9495D01*
G01X21589Y9495D01*
G01X21437Y9800D01*
G01X21234Y9800D01*
G37*

%LPD*%
G36*
G01X21437Y8003D02*
G01X21589Y8284D01*
G01X21082Y8284D01*
G01X21234Y8003D01*
G01X21437Y8003D01*
G37*

%LPD*%
G36*
G01X11024Y9847D02*
G01X10798Y9495D01*
G01X11553Y9495D01*
G01X11327Y9847D01*
G01X11024Y9847D01*
G37*
G54D14*
G01X5080Y43180D03*
G01X2540Y40640D03*
G01X5080Y38100D03*
G01X5080Y35560D03*
G01X2540Y33020D03*
G01X5080Y30480D03*
G01X5080Y27940D03*
G01X2540Y25400D03*
G01X5080Y22860D03*
G54D15*
G01X55880Y2402D03*
G01X55880Y4201D03*
G54D16*
G01X53086Y3556D03*
G01X42926Y3556D03*
G54D17*
G01X27178Y23876D03*
G54D18*
G01X29718Y23876D03*
G01X32258Y23876D03*
G01X34798Y23876D03*
G01X34798Y26416D03*
G01X32258Y26416D03*
G01X29718Y26416D03*
G01X27178Y26416D03*
G54D19*
G01X20320Y53340D03*
G54D20*
G01X17780Y53340D03*
G01X15240Y53340D03*
G01X12700Y53340D03*
G01X10160Y53340D03*
G01X7620Y53340D03*
G01X5080Y53340D03*
G01X2540Y53340D03*
G01X2540Y45720D03*
G01X5080Y45720D03*
G01X7620Y45720D03*
G01X10160Y45720D03*
G01X12700Y45720D03*
G01X15240Y45720D03*
G01X17780Y45720D03*
G01X20320Y45720D03*
G54D19*
G01X12700Y43180D03*
G54D20*
G01X12700Y40640D03*
G01X12700Y38100D03*
G01X12700Y35560D03*
G01X12700Y33020D03*
G01X12700Y30480D03*
G01X12700Y27940D03*
G01X12700Y25400D03*
G01X20320Y25400D03*
G01X20320Y27940D03*
G01X20320Y30480D03*
G01X20320Y33020D03*
G01X20320Y35560D03*
G01X20320Y38100D03*
G01X20320Y40640D03*
G01X20320Y43180D03*
G54D19*
G01X20320Y20320D03*
G54D20*
G01X17780Y20320D03*
G01X15240Y20320D03*
G01X12700Y20320D03*
G01X10160Y20320D03*
G01X7620Y20320D03*
G01X5080Y20320D03*
G01X2540Y20320D03*
G01X2540Y12700D03*
G01X5080Y12700D03*
G01X7620Y12700D03*
G01X10160Y12700D03*
G01X12700Y12700D03*
G01X15240Y12700D03*
G01X17780Y12700D03*
G01X20320Y12700D03*
G54D16*
G01X21336Y8890D03*
G01X11176Y8890D03*
G54D21*
G01X60967Y53395D03*
G01X43187Y53395D03*
G54D22*
G01X62237Y39425D03*
G01X62237Y36885D03*
G01X62237Y34345D03*
G01X62237Y31805D03*
G01X62237Y29265D03*
G01X62237Y26725D03*
G01X62237Y24185D03*
G01X62237Y21645D03*
G01X62237Y19105D03*
G01X62237Y16565D03*
G01X62237Y14025D03*
G01X62237Y11485D03*
G01X41917Y39425D03*
G01X41917Y36885D03*
G01X41917Y34345D03*
G01X41917Y31805D03*
G01X41917Y29265D03*
G01X41917Y26725D03*
G01X41917Y24185D03*
G01X41917Y21645D03*
G01X41917Y19105D03*
G01X41917Y16565D03*
G01X41917Y14025D03*
G01X41917Y11485D03*
G01X41917Y41965D03*
G01X41917Y44505D03*
G01X41917Y47045D03*
G01X41917Y49585D03*
G54D14*
G01X24284Y18887D03*
G01X24284Y16347D03*
G01X24284Y13807D03*
G01X24284Y11267D03*
G54D23*
G01X39369Y3810D03*
G54D24*
G01X39370Y1270D03*
G01X36830Y3810D03*
G01X36830Y1270D03*
G01X34290Y3810D03*
G01X34290Y1270D03*
G01X31750Y3810D03*
G01X31750Y1270D03*
G01X29210Y3810D03*
G01X29210Y1270D03*
G01X26670Y3810D03*
G01X26670Y1270D03*
G01X24130Y3810D03*
G01X24130Y1270D03*
G01X21590Y3810D03*
G01X21590Y1270D03*
G01X19050Y3810D03*
G01X19050Y1270D03*
G01X16510Y3810D03*
G01X16510Y1270D03*
G01X13970Y3810D03*
G01X13970Y1270D03*
G01X11430Y3810D03*
G01X11430Y1270D03*
G01X8890Y3810D03*
G01X8890Y1270D03*
G01X6350Y3810D03*
G01X6350Y1270D03*
G54D13*
G01X33647Y23147D03*
G01X55887Y12771D03*
G01X33672Y6177D03*
G01X38244Y26388D03*
G01X36680Y25455D03*
G01X38244Y32374D03*
M00*
M02*
