;PTH Drill file created by EasyEDA 
M48
METRIC,LZ,000.000
;Holesize 1 = 0.600 METRIC
T01C0.600
;Holesize 2 = 0.712 METRIC
T02C0.712
;Holesize 3 = 0.762 METRIC
T03C0.762
;Holesize 4 = 0.813 METRIC
T04C0.813
;Holesize 5 = 0.889 METRIC
T05C0.889
;Holesize 6 = 0.915 METRIC
T06C0.915
;Holesize 7 = 1.001 METRIC
T07C1.001
;Holesize 8 = 2.500 METRIC
T08C2.500
%
G05
G90
T01
X008011Y002540
X006212Y002540
X023622Y014340
X023622Y016139
T02
X020320Y050800
X017780Y050800
X015240Y050800
X012700Y050800
X010160Y050800
X007620Y050800
X005080Y050800
X002540Y050800
X002540Y043180
X005080Y043180
X007620Y043180
X010160Y043180
X012700Y043180
X015240Y043180
X017780Y043180
X020320Y043180
X012700Y040640
X012700Y038100
X012700Y035560
X012700Y033020
X012700Y030480
X012700Y027940
X012700Y025400
X012700Y022860
X020320Y022860
X020320Y025400
X020320Y027940
X020320Y030480
X020320Y033020
X020320Y035560
X020320Y038100
X020320Y040640
X020320Y015240
X017780Y015240
X015240Y015240
X012700Y015240
X010160Y015240
X007620Y015240
X005080Y015240
X002540Y015240
X002540Y007620
X005080Y007620
X007620Y007620
X010160Y007620
X012700Y007620
X015240Y007620
X017780Y007620
X020320Y007620
T03
X005080Y040640
X002540Y038100
X005080Y035560
X005080Y031750
X002540Y029210
X005080Y026670
X005080Y022860
X002540Y020320
X005080Y017780
T04
X021590Y020066
X011430Y020066
X021590Y017780
X011430Y017780
T05
X059944Y002540
X057404Y002540
X018542Y002540
X016002Y002540
X013462Y002540
X010922Y002540
X029718Y002540
X027178Y002540
X024638Y002540
X022098Y002540
X041148Y002540
X038608Y002540
X036068Y002540
X033528Y002540
X052324Y002540
X049784Y002540
X047244Y002540
X044704Y002540
X051816Y039370
X051816Y036830
X051816Y034290
X051816Y031750
T06
X035335Y016609
X032795Y016609
X030255Y016609
X027715Y016609
X027686Y023622
X030226Y023622
X032766Y023622
X035306Y023622
X027686Y021082
X030226Y021082
X032766Y021082
X035306Y021082
T07
X062237Y036631
X062237Y034091
X062237Y031551
X062237Y029011
X062237Y026471
X062237Y023931
X062237Y021391
X062237Y018851
X062237Y016311
X062237Y013771
X062237Y011231
X062237Y008691
X041917Y036631
X041917Y034091
X041917Y031551
X041917Y029011
X041917Y026471
X041917Y023931
X041917Y021391
X041917Y018851
X041917Y016311
X041917Y013771
X041917Y011231
X041917Y008691
X041917Y039171
X041917Y041711
X041917Y044251
X041917Y046791
T08
X060967Y050601
X043187Y050601
M30
