G04 ---------------------------- Layer name :BOTTOM SILK LAYER*
G04 EasyEDA v5.6.15, Thu, 02 Aug 2018 08:18:31 GMT*
G04 cc4900fb0f2e4d9197698a7e792d27c9*
G04 Gerber Generator version 0.2*
G04 Scale: 100 percent, Rotated: No, Reflected: No *
G04 Dimensions in millimeters *
G04 leading zeros omitted , absolute positions ,3 integer and 3 decimal *
%FSLAX33Y33*%
%MOMM*%
G90*
G71D02*

%ADD10C,0.254000*%
%ADD23C,0.177800*%
%ADD25C,0.203200*%
%ADD26C,0.202999*%

%LPD*%
G54D25*
G01X56134Y3810D02*
G01X56134Y1295D01*
G01X61214Y1295D01*
G01X61214Y3810D01*
G01X56134Y3810D01*
G01X9652Y3810D02*
G01X9652Y1270D01*
G01X19812Y1270D01*
G01X19812Y3810D01*
G01X17907Y3810D01*
G54D26*
G01X9652Y3810D02*
G01X17907Y3810D01*
G54D25*
G01X20828Y3810D02*
G01X20828Y1270D01*
G01X30988Y1270D01*
G01X30988Y3810D01*
G01X29083Y3810D01*
G54D26*
G01X20828Y3810D02*
G01X29083Y3810D01*
G54D25*
G01X32258Y3810D02*
G01X32258Y1270D01*
G01X42418Y1270D01*
G01X42418Y3810D01*
G01X40513Y3810D01*
G54D26*
G01X32258Y3810D02*
G01X40513Y3810D01*
G54D25*
G01X43434Y3810D02*
G01X43434Y1270D01*
G01X53594Y1270D01*
G01X53594Y3810D01*
G01X51689Y3810D01*
G54D26*
G01X43434Y3810D02*
G01X51689Y3810D01*
G54D25*
G01X50546Y30480D02*
G01X53086Y30480D01*
G01X53086Y40640D01*
G01X50546Y40640D01*
G01X50546Y38735D01*
G54D26*
G01X50546Y30480D02*
G01X50546Y38735D01*
G54D23*
G01X58674Y5702D02*
G01X58674Y4612D01*
G01X58674Y5702D02*
G01X58206Y5702D01*
G01X58051Y5651D01*
G01X57998Y5600D01*
G01X57947Y5496D01*
G01X57947Y5339D01*
G01X57998Y5234D01*
G01X58051Y5184D01*
G01X58206Y5130D01*
G01X58674Y5130D01*
G01X57083Y5702D02*
G01X57604Y4975D01*
G01X56824Y4975D01*
G01X57083Y5702D02*
G01X57083Y4612D01*
G01X7112Y5702D02*
G01X7112Y4612D01*
G01X7112Y5702D02*
G01X6644Y5702D01*
G01X6489Y5651D01*
G01X6436Y5600D01*
G01X6385Y5496D01*
G01X6385Y5392D01*
G01X6436Y5288D01*
G01X6489Y5234D01*
G01X6644Y5184D01*
G01X7112Y5184D01*
G01X6748Y5184D02*
G01X6385Y4612D01*
G01X5521Y5702D02*
G01X6042Y4975D01*
G01X5262Y4975D01*
G01X5521Y5702D02*
G01X5521Y4612D01*
G01X14732Y5702D02*
G01X14732Y4612D01*
G01X14732Y4612D02*
G01X14109Y4612D01*
G01X12987Y5443D02*
G01X13037Y5547D01*
G01X13141Y5651D01*
G01X13246Y5702D01*
G01X13454Y5702D01*
G01X13558Y5651D01*
G01X13662Y5547D01*
G01X13713Y5443D01*
G01X13766Y5288D01*
G01X13766Y5029D01*
G01X13713Y4871D01*
G01X13662Y4767D01*
G01X13558Y4663D01*
G01X13454Y4612D01*
G01X13246Y4612D01*
G01X13141Y4663D01*
G01X13037Y4767D01*
G01X12987Y4871D01*
G01X12644Y5496D02*
G01X12539Y5547D01*
G01X12382Y5702D01*
G01X12382Y4612D01*
G01X25908Y5702D02*
G01X25908Y4612D01*
G01X25908Y4612D02*
G01X25285Y4612D01*
G01X24163Y5443D02*
G01X24213Y5547D01*
G01X24317Y5651D01*
G01X24422Y5702D01*
G01X24630Y5702D01*
G01X24734Y5651D01*
G01X24838Y5547D01*
G01X24889Y5443D01*
G01X24942Y5288D01*
G01X24942Y5029D01*
G01X24889Y4871D01*
G01X24838Y4767D01*
G01X24734Y4663D01*
G01X24630Y4612D01*
G01X24422Y4612D01*
G01X24317Y4663D01*
G01X24213Y4767D01*
G01X24163Y4871D01*
G01X23766Y5443D02*
G01X23766Y5496D01*
G01X23715Y5600D01*
G01X23662Y5651D01*
G01X23558Y5702D01*
G01X23352Y5702D01*
G01X23248Y5651D01*
G01X23195Y5600D01*
G01X23144Y5496D01*
G01X23144Y5392D01*
G01X23195Y5288D01*
G01X23299Y5130D01*
G01X23820Y4612D01*
G01X23091Y4612D01*
G01X37338Y5702D02*
G01X37338Y4612D01*
G01X37338Y4612D02*
G01X36715Y4612D01*
G01X35593Y5443D02*
G01X35643Y5547D01*
G01X35747Y5651D01*
G01X35852Y5702D01*
G01X36060Y5702D01*
G01X36164Y5651D01*
G01X36268Y5547D01*
G01X36319Y5443D01*
G01X36372Y5288D01*
G01X36372Y5029D01*
G01X36319Y4871D01*
G01X36268Y4767D01*
G01X36164Y4663D01*
G01X36060Y4612D01*
G01X35852Y4612D01*
G01X35747Y4663D01*
G01X35643Y4767D01*
G01X35593Y4871D01*
G01X35145Y5702D02*
G01X34574Y5702D01*
G01X34886Y5288D01*
G01X34729Y5288D01*
G01X34625Y5234D01*
G01X34574Y5184D01*
G01X34521Y5029D01*
G01X34521Y4925D01*
G01X34574Y4767D01*
G01X34678Y4663D01*
G01X34833Y4612D01*
G01X34988Y4612D01*
G01X35145Y4663D01*
G01X35196Y4716D01*
G01X35250Y4820D01*
G01X48514Y5702D02*
G01X48514Y4612D01*
G01X47787Y5702D02*
G01X47787Y4612D01*
G01X48514Y5184D02*
G01X47787Y5184D01*
G01X46715Y5547D02*
G01X46819Y5651D01*
G01X46977Y5702D01*
G01X47183Y5702D01*
G01X47340Y5651D01*
G01X47444Y5547D01*
G01X47444Y5443D01*
G01X47391Y5339D01*
G01X47340Y5288D01*
G01X47236Y5234D01*
G01X46923Y5130D01*
G01X46819Y5080D01*
G01X46769Y5029D01*
G01X46715Y4925D01*
G01X46715Y4767D01*
G01X46819Y4663D01*
G01X46977Y4612D01*
G01X47183Y4612D01*
G01X47340Y4663D01*
G01X47444Y4767D01*
G01X46372Y5496D02*
G01X46268Y5547D01*
G01X46113Y5702D01*
G01X46113Y4612D01*
G01X53847Y34010D02*
G01X53743Y34114D01*
G01X53693Y34269D01*
G01X53693Y34477D01*
G01X53743Y34632D01*
G01X53847Y34737D01*
G01X53952Y34737D01*
G01X54056Y34686D01*
G01X54107Y34632D01*
G01X54160Y34528D01*
G01X54264Y34216D01*
G01X54315Y34114D01*
G01X54366Y34061D01*
G01X54470Y34010D01*
G01X54627Y34010D01*
G01X54731Y34114D01*
G01X54782Y34269D01*
G01X54782Y34477D01*
G01X54731Y34632D01*
G01X54627Y34737D01*
G01X53898Y33667D02*
G01X53847Y33563D01*
G01X53693Y33406D01*
G01X54782Y33406D01*
G54D10*
G75*
G01X8362Y2540D02*
G03X8362Y2540I-1250J0D01*
G01*
M00*
M02*
