G04 ---------------------------- Layer name :TOP SOLDER LAYER*
G04 EasyEDA v5.6.15, Fri, 03 Aug 2018 07:00:42 GMT*
G04 fad3a197975a46e394a3725a2b087312*
G04 Gerber Generator version 0.2*
G04 Scale: 100 percent, Rotated: No, Reflected: No *
G04 Dimensions in millimeters *
G04 leading zeros omitted , absolute positions ,3 integer and 3 decimal *
%FSLAX33Y33*%
%MOMM*%
G90*
G71D02*

%ADD14C,1.727200*%
%ADD15C,1.403096*%
%ADD16R,1.414780X1.414780*%
%ADD17R,1.854200X1.854200*%
%ADD18C,1.854200*%
%ADD19R,1.600200X1.600200*%
%ADD20C,1.600200*%
%ADD21C,4.013200*%
%ADD22C,1.981200*%
%ADD23R,1.903197X1.903197*%
%ADD24C,1.903197*%

%LPD*%
G54D14*
G01X5080Y43180D03*
G01X2540Y40640D03*
G01X5080Y38100D03*
G01X5080Y35560D03*
G01X2540Y33020D03*
G01X5080Y30480D03*
G01X5080Y27940D03*
G01X2540Y25400D03*
G01X5080Y22860D03*
G54D15*
G01X55880Y2402D03*
G01X55880Y4201D03*
G54D16*
G01X53086Y3556D03*
G01X42926Y3556D03*
G54D17*
G01X27178Y23876D03*
G54D18*
G01X29718Y23876D03*
G01X32258Y23876D03*
G01X34798Y23876D03*
G01X34798Y26416D03*
G01X32258Y26416D03*
G01X29718Y26416D03*
G01X27178Y26416D03*
G54D19*
G01X20320Y53340D03*
G54D20*
G01X17780Y53340D03*
G01X15240Y53340D03*
G01X12700Y53340D03*
G01X10160Y53340D03*
G01X7620Y53340D03*
G01X5080Y53340D03*
G01X2540Y53340D03*
G01X2540Y45720D03*
G01X5080Y45720D03*
G01X7620Y45720D03*
G01X10160Y45720D03*
G01X12700Y45720D03*
G01X15240Y45720D03*
G01X17780Y45720D03*
G01X20320Y45720D03*
G54D19*
G01X12700Y43180D03*
G54D20*
G01X12700Y40640D03*
G01X12700Y38100D03*
G01X12700Y35560D03*
G01X12700Y33020D03*
G01X12700Y30480D03*
G01X12700Y27940D03*
G01X12700Y25400D03*
G01X20320Y25400D03*
G01X20320Y27940D03*
G01X20320Y30480D03*
G01X20320Y33020D03*
G01X20320Y35560D03*
G01X20320Y38100D03*
G01X20320Y40640D03*
G01X20320Y43180D03*
G54D19*
G01X20320Y20320D03*
G54D20*
G01X17780Y20320D03*
G01X15240Y20320D03*
G01X12700Y20320D03*
G01X10160Y20320D03*
G01X7620Y20320D03*
G01X5080Y20320D03*
G01X2540Y20320D03*
G01X2540Y12700D03*
G01X5080Y12700D03*
G01X7620Y12700D03*
G01X10160Y12700D03*
G01X12700Y12700D03*
G01X15240Y12700D03*
G01X17780Y12700D03*
G01X20320Y12700D03*
G54D16*
G01X21336Y8890D03*
G01X11176Y8890D03*
G54D21*
G01X60967Y53395D03*
G01X43187Y53395D03*
G54D22*
G01X62237Y39425D03*
G01X62237Y36885D03*
G01X62237Y34345D03*
G01X62237Y31805D03*
G01X62237Y29265D03*
G01X62237Y26725D03*
G01X62237Y24185D03*
G01X62237Y21645D03*
G01X62237Y19105D03*
G01X62237Y16565D03*
G01X62237Y14025D03*
G01X62237Y11485D03*
G01X41917Y39425D03*
G01X41917Y36885D03*
G01X41917Y34345D03*
G01X41917Y31805D03*
G01X41917Y29265D03*
G01X41917Y26725D03*
G01X41917Y24185D03*
G01X41917Y21645D03*
G01X41917Y19105D03*
G01X41917Y16565D03*
G01X41917Y14025D03*
G01X41917Y11485D03*
G01X41917Y41965D03*
G01X41917Y44505D03*
G01X41917Y47045D03*
G01X41917Y49585D03*
G54D14*
G01X24284Y18887D03*
G01X24284Y16347D03*
G01X24284Y13807D03*
G01X24284Y11267D03*
G54D23*
G01X39369Y3810D03*
G54D24*
G01X39370Y1270D03*
G01X36830Y3810D03*
G01X36830Y1270D03*
G01X34290Y3810D03*
G01X34290Y1270D03*
G01X31750Y3810D03*
G01X31750Y1270D03*
G01X29210Y3810D03*
G01X29210Y1270D03*
G01X26670Y3810D03*
G01X26670Y1270D03*
G01X24130Y3810D03*
G01X24130Y1270D03*
G01X21590Y3810D03*
G01X21590Y1270D03*
G01X19050Y3810D03*
G01X19050Y1270D03*
G01X16510Y3810D03*
G01X16510Y1270D03*
G01X13970Y3810D03*
G01X13970Y1270D03*
G01X11430Y3810D03*
G01X11430Y1270D03*
G01X8890Y3810D03*
G01X8890Y1270D03*
G01X6350Y3810D03*
G01X6350Y1270D03*
M00*
M02*
