G04 ---------------------------- Layer name :TOP LAYER*
G04 EasyEDA v5.6.15, Thu, 02 Aug 2018 08:18:31 GMT*
G04 cc4900fb0f2e4d9197698a7e792d27c9*
G04 Gerber Generator version 0.2*
G04 Scale: 100 percent, Rotated: No, Reflected: No *
G04 Dimensions in millimeters *
G04 leading zeros omitted , absolute positions ,3 integer and 3 decimal *
%FSLAX33Y33*%
%MOMM*%
G90*
G71D02*

%ADD11C,0.202997*%
%ADD12R,1.574800X1.574800*%
%ADD13C,1.574800*%
%ADD14C,1.199896*%
%ADD15C,1.524000*%
%ADD16R,1.211580X1.211580*%
%ADD17R,1.397000X1.397000*%
%ADD18C,1.397000*%
%ADD19C,3.810000*%
%ADD20C,1.778000*%
%ADD21R,1.524000X1.524000*%

%LPD*%
G54D11*
G01X10922Y2540D02*
G01X8011Y2540D01*
G01X22098Y2540D02*
G01X21028Y1470D01*
G01X11991Y1470D01*
G01X10922Y2540D01*
G01X33528Y2540D02*
G01X32306Y1318D01*
G01X23319Y1318D01*
G01X22098Y2540D01*
G01X44704Y2540D02*
G01X43101Y937D01*
G01X35130Y937D01*
G01X33528Y2540D01*
G01X25374Y46725D02*
G01X21300Y50800D01*
G01X41917Y44251D02*
G01X27848Y44251D01*
G01X25374Y46725D01*
G01X25374Y46725D02*
G01X20269Y41620D01*
G01X14660Y41620D01*
G01X13680Y40640D01*
G01X12700Y40640D02*
G01X13680Y40640D01*
G01X20320Y50800D02*
G01X21300Y50800D01*
G01X20320Y15240D02*
G01X21300Y15240D01*
G01X23622Y14340D02*
G01X22199Y14340D01*
G01X21300Y15240D01*
G01X62237Y13771D02*
G01X60967Y12501D01*
G01X20518Y12501D01*
G01X17780Y15240D01*
G01X24638Y3710D02*
G01X14632Y3710D01*
G01X13462Y2540D01*
G01X36068Y2540D02*
G01X34897Y3710D01*
G01X24638Y3710D01*
G01X24638Y3710D02*
G01X24638Y2540D01*
G01X47244Y2540D02*
G01X48313Y1470D01*
G01X56334Y1470D01*
G01X57404Y2540D01*
G01X26642Y21082D02*
G01X24579Y19019D01*
G01X19019Y19019D01*
G01X15240Y15240D01*
G01X27686Y21082D02*
G01X26642Y21082D01*
G01X15240Y15240D02*
G01X12700Y17780D01*
G01X11430Y17780D01*
G01X10160Y50800D02*
G01X11191Y51831D01*
G01X14208Y51831D01*
G01X15240Y50800D01*
G01X20320Y30480D02*
G01X12700Y30480D01*
G01X41917Y39171D02*
G01X33225Y30480D01*
G01X20320Y30480D01*
G01X21590Y17780D02*
G01X26433Y17780D01*
G01X28956Y20302D01*
G01X28956Y23848D01*
G01X29895Y24787D01*
G01X41061Y24787D01*
G01X41917Y23931D01*
G01X41917Y31551D02*
G01X39865Y29499D01*
G01X21879Y29499D01*
G01X20320Y27940D01*
G01X41917Y41711D02*
G01X49339Y34290D01*
G01X51816Y34290D01*
G01X32766Y23622D02*
G01X33825Y22562D01*
G01X60868Y22562D01*
G01X62237Y23931D01*
G01X62237Y34091D02*
G01X56959Y39370D01*
G01X51816Y39370D01*
G01X21590Y20066D02*
G01X16240Y20066D01*
G01X14841Y18666D01*
G01X8956Y18666D01*
G01X6766Y16476D01*
G01X4688Y16476D01*
G01X4069Y15857D01*
G01X4069Y13898D01*
G01X8722Y9243D01*
G01X8722Y5049D01*
G01X6212Y2540D01*
G01X41917Y26471D02*
G01X28882Y26471D01*
G01X22476Y20066D01*
G01X22034Y20066D02*
G01X21590Y20066D01*
G01X22034Y20066D02*
G01X22476Y20066D01*
G01X30226Y23622D02*
G01X31668Y22179D01*
G01X37602Y22179D01*
G01X39585Y20193D01*
G01X61038Y20193D01*
G01X62237Y21391D01*
G01X62237Y8691D02*
G01X55935Y8691D01*
G01X49784Y2540D01*
G01X41148Y2540D02*
G01X40078Y2540D01*
G01X40078Y2540D02*
G01X40078Y2339D01*
G01X39057Y1320D01*
G01X38298Y1320D01*
G01X37475Y2143D01*
G01X37475Y2743D01*
G01X31615Y8600D01*
G01X11719Y8600D01*
G01X5080Y15240D01*
G01X12700Y22860D02*
G01X6350Y29210D01*
G01X2540Y29210D01*
G01X41917Y29011D02*
G01X28039Y29011D01*
G01X20411Y21381D01*
G01X7129Y21381D01*
G01X3520Y17774D01*
G01X3520Y9179D01*
G01X5080Y7620D01*
G01X7620Y7620D02*
G01X5080Y7620D01*
G01X7620Y15240D02*
G01X13718Y9141D01*
G01X32006Y9141D01*
G01X38608Y2540D01*
G01X30226Y21082D02*
G01X33627Y17680D01*
G01X60868Y17680D01*
G01X62237Y16311D01*
G01X20320Y22860D02*
G01X16510Y26670D01*
G01X10160Y26670D01*
G01X5080Y31750D01*
G01X41917Y34091D02*
G01X43190Y35361D01*
G01X43190Y39687D01*
G01X42532Y40342D01*
G01X31511Y40342D01*
G01X30827Y39659D01*
G01X11140Y39659D01*
G01X7620Y43180D01*
G01X7620Y43180D02*
G01X5080Y43180D01*
G01X20320Y35560D02*
G01X17780Y33020D01*
G01X12700Y33020D01*
G54D12*
G01X59944Y2540D03*
G54D13*
G01X57404Y2540D03*
G54D14*
G01X8011Y2540D03*
G01X6212Y2540D03*
G54D12*
G01X18542Y2540D03*
G54D13*
G01X16002Y2540D03*
G01X13462Y2540D03*
G01X10922Y2540D03*
G54D12*
G01X29718Y2540D03*
G54D13*
G01X27178Y2540D03*
G01X24638Y2540D03*
G01X22098Y2540D03*
G54D12*
G01X41148Y2540D03*
G54D13*
G01X38608Y2540D03*
G01X36068Y2540D03*
G01X33528Y2540D03*
G54D12*
G01X52324Y2540D03*
G54D13*
G01X49784Y2540D03*
G01X47244Y2540D03*
G01X44704Y2540D03*
G54D12*
G01X51816Y39370D03*
G54D13*
G01X51816Y36830D03*
G01X51816Y34290D03*
G01X51816Y31750D03*
G54D15*
G01X5080Y40640D03*
G01X2540Y38100D03*
G01X5080Y35560D03*
G01X5080Y31750D03*
G01X2540Y29210D03*
G01X5080Y26670D03*
G01X5080Y22860D03*
G01X2540Y20320D03*
G01X5080Y17780D03*
G54D16*
G01X21590Y20066D03*
G01X11430Y20066D03*
G54D17*
G01X20320Y50800D03*
G54D18*
G01X17780Y50800D03*
G01X15240Y50800D03*
G01X12700Y50800D03*
G01X10160Y50800D03*
G01X7620Y50800D03*
G01X5080Y50800D03*
G01X2540Y50800D03*
G01X2540Y43180D03*
G01X5080Y43180D03*
G01X7620Y43180D03*
G01X10160Y43180D03*
G01X12700Y43180D03*
G01X15240Y43180D03*
G01X17780Y43180D03*
G01X20320Y43180D03*
G54D17*
G01X12700Y40640D03*
G54D18*
G01X12700Y38100D03*
G01X12700Y35560D03*
G01X12700Y33020D03*
G01X12700Y30480D03*
G01X12700Y27940D03*
G01X12700Y25400D03*
G01X12700Y22860D03*
G01X20320Y22860D03*
G01X20320Y25400D03*
G01X20320Y27940D03*
G01X20320Y30480D03*
G01X20320Y33020D03*
G01X20320Y35560D03*
G01X20320Y38100D03*
G01X20320Y40640D03*
G54D17*
G01X20320Y15240D03*
G54D18*
G01X17780Y15240D03*
G01X15240Y15240D03*
G01X12700Y15240D03*
G01X10160Y15240D03*
G01X7620Y15240D03*
G01X5080Y15240D03*
G01X2540Y15240D03*
G01X2540Y7620D03*
G01X5080Y7620D03*
G01X7620Y7620D03*
G01X10160Y7620D03*
G01X12700Y7620D03*
G01X15240Y7620D03*
G01X17780Y7620D03*
G01X20320Y7620D03*
G54D15*
G01X35335Y16609D03*
G01X32795Y16609D03*
G01X30255Y16609D03*
G01X27715Y16609D03*
G54D19*
G01X60967Y50601D03*
G01X43187Y50601D03*
G54D20*
G01X62237Y36631D03*
G01X62237Y34091D03*
G01X62237Y31551D03*
G01X62237Y29011D03*
G01X62237Y26471D03*
G01X62237Y23931D03*
G01X62237Y21391D03*
G01X62237Y18851D03*
G01X62237Y16311D03*
G01X62237Y13771D03*
G01X62237Y11231D03*
G01X62237Y8691D03*
G01X41917Y36631D03*
G01X41917Y34091D03*
G01X41917Y31551D03*
G01X41917Y29011D03*
G01X41917Y26471D03*
G01X41917Y23931D03*
G01X41917Y21391D03*
G01X41917Y18851D03*
G01X41917Y16311D03*
G01X41917Y13771D03*
G01X41917Y11231D03*
G01X41917Y8691D03*
G01X41917Y39171D03*
G01X41917Y41711D03*
G01X41917Y44251D03*
G01X41917Y46791D03*
G54D15*
G01X27686Y23622D03*
G01X30226Y23622D03*
G01X32766Y23622D03*
G01X35306Y23622D03*
G54D21*
G01X27686Y21082D03*
G54D15*
G01X30226Y21082D03*
G01X32766Y21082D03*
G01X35306Y21082D03*
G54D14*
G01X23622Y14340D03*
G01X23622Y16139D03*
G54D16*
G01X21590Y17780D03*
G01X11430Y17780D03*
M00*
M02*
